<?xml version="1.0" encoding="utf-8"?>
<!-- Generator: Adobe Illustrator 27.2.0, SVG Export Plug-In . SVG Version: 6.00 Build 0)  -->
<svg version="1.1" id="Layer_1" xmlns="http://www.w3.org/2000/svg" xmlns:xlink="http://www.w3.org/1999/xlink" x="0px" y="0px"
	 viewBox="0 0 96 96" style="enable-background:new 0 0 96 96;" xml:space="preserve">
<style type="text/css">
	.st0{fill:#FF5722;}
	.st1{fill:#2C1C17;}
</style>
<path class="st0" d="M28.8,0h38.4C83.1,0,96,12.9,96,28.8v38.4C96,83.1,83.1,96,67.2,96H28.8C12.9,96,0,83.1,0,67.2V28.8
	C0,12.9,12.9,0,28.8,0z"/>
<g>
	<path class="st0" d="M4.5,21.9c2-0.7,3.6-2.3,4.4-4.2c1.1-2.6,1.3-5.4,1.2-8.2c0-0.9-0.1-1.8-0.1-2.8c-4.7,4-8,9.4-9.5,15.5
		C1.9,22.4,3.2,22.3,4.5,21.9L4.5,21.9z"/>
	<path class="st0" d="M13.5,32.8c2.2-0.9,4.1-2.8,4.7-5.1c0.9-3,0.6-6.2,0-9.2c-1-5.1-2.3-10.1-3.4-15.1c-0.9,0.5-1.9,1.1-2.7,1.7
		c0.6,3.4,1.1,6.8,1,10.3c0,2.4-0.4,4.9-1.6,7C10.6,24,9.1,25.4,7.3,26c-2.4,0.7-4.9,0.5-7.3,0v5.6c2.4,0.7,4.9,1.5,7.4,1.9
		C9.4,33.7,11.6,33.6,13.5,32.8L13.5,32.8z"/>
	<path class="st0" d="M22,43.1c3.1-0.7,5.8-3.3,6.4-6.4c0.8-3.9-0.5-7.8-1.7-11.5c-2.6-7.9-6.4-15.5-7.2-23.9c-1,0.3-2,0.7-3,1.2
		c0.7,3.7,1.6,7.3,2.7,11c1.1,4,2.6,7.9,2.9,12c0.1,1.7,0.1,3.4-0.3,5c-0.6,2.4-2.2,4.5-4.4,5.7c-1.5,0.8-3.2,1-4.9,1
		C8.2,37.2,4,36,0,34.6v6c4,0.5,8,1.7,12,2.3C15.3,43.4,18.7,43.9,22,43.1L22,43.1z"/>
	<path class="st0" d="M4.5,51.6c4-1.2,8.2-0.3,12.3,0.2c4.9,0.5,9.9,1.4,14.9,0.7c4.5-0.6,8.1-5,7.7-9.5c-0.5-5.7-3.2-10.8-5.6-15.8
		c-2.4-5.4-5.3-10.8-6.5-16.6C26.6,7.1,26.5,3.4,27.8,0h-2.2c-1.3,0.1-2.5,0.4-3.7,0.6c0.1,4.3,1.2,8.5,2.6,12.6
		c2.4,7.1,6.3,13.7,7.8,21.2c0.7,3.3,0.1,7.1-2.4,9.6c-2,2.2-5.2,2.8-8.1,2.8C16.1,47,10.5,45.5,5,44.5c-1.6-0.3-3.3-0.5-5-0.3v12
		C0.7,54.1,2.3,52.2,4.5,51.6L4.5,51.6z"/>
	<path class="st0" d="M10.3,70.1c0-1.5,0-3,0.6-4.4c0.5-1.3,1.5-2.4,2.6-3.3c2.3-1.7,5.3-2,8-2c6.9,0.4,13.8,1.6,20.7,0.8
		c3.6-0.6,7.2-3.2,7.9-6.9c0.4-2.5-0.1-5-0.7-7.4c-1.5-5-4.3-9.5-6.9-14.1c-2.7-4.8-5.4-9.7-6.7-15.1c-1.1-4-0.2-8.5,2.3-11.9
		c1.9-2.6,5.1-4,8.3-4.3c2.5-0.3,5,0.2,7.4,0.8c9,2.2,17.2,6.9,26.2,9.5c3.2,0.9,6.5,1.8,9.8,1.6c0.6-0.1,1.2-0.1,1.7-0.2
		c-1.6-2.5-3.5-4.7-5.7-6.6c-3.9,0.9-8,0.4-11.8-0.6C68.3,4.6,62.9,2.3,57.5,0H32.4c-1,1.4-1.9,3-2.3,4.7c-0.4,1.8-0.4,3.6-0.3,5.4
		c0.5,5.3,2.6,10.3,5,15.1c2.5,5,5.3,9.8,7.2,15.1c0.8,2.2,1.4,4.6,1.2,7c-0.2,3-1.9,6.2-4.8,7.4c-3,1.3-6.4,1.3-9.7,1.2
		c-5.5,0-10.9-1.2-16.3-1.2c-2.3,0-4.8,0.3-6.6,1.8c-2.1,1.8-2.8,4.8-2.6,7.5c0.5,6.3,2.8,12.3,3.2,18.7c0.1,1,0.1,2-0.1,2.9
		c1.9,2.3,4.1,4.2,6.6,5.9c0.1-0.5,0.1-0.9,0.1-1.4C13.5,83.3,10.4,76.9,10.3,70.1L10.3,70.1z"/>
	<path class="st0" d="M80.3,3.6c0.3,0,0.6-0.1,0.9-0.1c-3.3-1.9-7-3.1-11-3.5h-7.6C68.2,2.3,74.2,4.3,80.3,3.6z"/>
	<path class="st0" d="M21.8,74.6c1-2.1,3-3.5,5.1-4.2c2.1-0.8,4.3-0.9,6.5-0.9c5-0.1,10,0.9,15,0.8c2.8,0,5.8-0.3,8.3-1.6
		c3.2-1.7,4.9-5.5,4.4-9c-0.3-3.3-1.6-6.4-3-9.4c-3.2-6.8-8-12.8-11-19.8c-1.3-3.2-2.3-6.6-2-10c0.3-4,3.2-7.6,6.9-9
		c3.9-1.5,8.2-0.6,12.1,0.4c5.6,1.4,11,3.5,16.2,5.9c4.8,2.2,9.7,4.2,14.9,5.3c-0.4-2.2-1.1-4.2-2-6.2c-3.4,0.2-6.9-0.7-10.2-1.6
		C75.2,13,67.7,9.2,59.7,6.6c-3-0.9-6.1-1.8-9.3-1.7c-3.1,0.1-6.1,1.3-8.3,3.4c-2.3,2.2-3.5,5.3-3.4,8.5c0.1,2.9,1,5.7,2.1,8.3
		c3.2,7.7,8.4,14.4,11.7,22.1c1.4,3.3,2.3,6.9,1.5,10.5c-0.8,3.2-3.6,5.5-6.7,6.4c-3.6,1-7.3,0.6-10.9,0.3
		c-3.7-0.2-7.5-0.6-11.2-0.6c-2.6,0.1-5.3,0.2-7.5,1.6c-2.6,1.6-3.7,4.9-3.6,7.8c0.3,5.8,2.4,11.4,2.7,17.3c0.1,1,0.1,1.9,0,2.9
		c2,0.9,4.2,1.6,6.4,2c-0.5-4.8-1.8-9.5-2.1-14.4C21,79,20.9,76.7,21.8,74.6L21.8,74.6z"/>
	<path class="st0" d="M84.8,21.7c-7.6-3.2-15.2-7.2-23.7-7.7c-3.4-0.3-6.9,0.9-9.3,3.3c-2.1,2-3.2,4.8-3.1,7.7
		c0.2,2.8,1.2,5.4,2.2,8c2.9,7.1,7.7,13.2,11,20c1.5,3.1,2.8,6.3,3,9.7c0.1,1.8,0,3.8-0.9,5.4c-1.2,2.5-3.7,4.2-6.4,4.8
		c-2.6,0.6-5.2,0.5-7.8,0.3c-5.1-0.1-10.1-0.9-15.2-0.5c-2.6,0.2-5.4,0.9-7.4,2.7c-1.9,1.8-2.6,4.4-2.7,6.9c0.1,4.6,1.4,9,1.8,13.5
		c0.3,0,0.6,0.1,0.9,0.1h4.6c-0.1-2.5-0.5-5-0.5-7.5c0.1-2.9,1.1-6,3.4-7.8c2.5-2,5.8-2.3,8.8-2.3c6.5-0.2,13,1.2,19.5,0.8
		c3.7-0.4,7.4-2.9,8.4-6.6c1.1-4.3-0.2-8.7-1.9-12.6C66,52.6,61.3,46,57.9,38.7c-1.6-3.6-2.8-7.6-1.9-11.5c0.6-2.9,2.9-5.4,5.6-6.5
		c3.7-1.6,8-1,11.8,0c7.9,2.1,15.3,5.7,22.6,9.4v-1.3c0-0.9-0.1-1.8-0.1-2.7C92.1,24.8,88.5,23.2,84.8,21.7L84.8,21.7z"/>
	<path class="st0" d="M73.2,23.1c-2.8-0.4-5.7-0.2-8.3,0.9c-2.3,1-4.2,2.9-4.9,5.3c-1.2,3.6-0.2,7.5,1.2,10.9
		c2.3,5.5,5.7,10.4,8.6,15.6c2.3,4.2,4.4,8.5,5.4,13.2c0.5,2.5,0.5,5.2-0.5,7.6c-1,2.4-3.1,4.3-5.6,5.1c-2.7,0.9-5.6,0.7-8.4,0.4
		c-5.5-0.5-11.1-1.1-16.7-0.7c-3.4,0.2-6.7,2.4-8.1,5.5c-1.3,2.8-1.1,5.9-0.9,8.9h6.3c0.6-4.2,4-7.7,8.1-8.4
		c7.3-1.5,14.6,1.3,21.9,1.1c1.8-0.1,3.7-0.1,5.3-1c3-1.6,4.8-4.9,4.9-8.2c0-3.5-0.8-6.9-1.9-10.2c-2.4-6.5-6.2-12.5-9.3-18.6
		c-2.1-3.9-3.9-8-3.9-12.5c0.1-3.5,2.4-6.7,5.5-8.3c2.6-1.3,5.6-1.4,8.4-0.9c5.5,1.1,10.8,3.3,15.7,6v-3c-4.5-2.3-8.9-4.5-13.6-6.4
		C79.5,24.6,76.4,23.5,73.2,23.1L73.2,23.1z"/>
	<path class="st0" d="M79.8,32.3c-1.8,0.1-3.7,0.4-5.3,1.3c-3.1,1.9-4.8,5.9-4.1,9.5c1,7.5,5.6,13.8,8.7,20.5
		c2.7,5.8,5.7,11.9,5.6,18.6c0,3.6-1.5,7.4-4.7,9.3c-1.6,1-3.5,1.1-5.3,1.1c-6.7-0.4-13.3-2.2-20-1.9c-3.7,0.2-7.5,2-9.1,5.4h22.9
		C77.3,95.6,85,91.3,90,84.8c-0.3-2.4-0.9-4.8-1.7-7.2c-2.4-7.2-6.2-13.9-8.9-21c-1-2.5-1.8-5.2-2.1-7.9c-0.2-1.8,0-3.6,0.8-5.3
		c1.3-2.7,4-4.6,6.9-5c3.8-0.3,7.4,0.9,10.9,2.2v-3.5C91,34.6,85.6,32.1,79.8,32.3L79.8,32.3z"/>
	<path class="st0" d="M88.6,42.2c-2.3,0.3-4.5,1.4-5.8,3.3c-1.2,1.6-1.7,3.7-1.6,5.7c-0.1,2.7,0.8,5.4,1.7,7.9
		c2.7,7.7,6.8,15,8.8,23c0,0.1,0,0.1,0.1,0.2c0.7-1.1,1.3-2.3,1.8-3.5c-1.1-3.2-2.3-6.5-3.4-9.7c-1.1-3.2-2.1-6.6-2.2-10
		c-0.1-1.8,0-3.8,0.8-5.5c1.3-2.7,4.2-4.5,7.2-4.5v-5.8C93.7,42.4,91.1,41.9,88.6,42.2L88.6,42.2z"/>
	<path class="st0" d="M91.8,58.8c-0.9,3.4-0.1,6.9,0.8,10.2c0.6,2.3,1.3,4.7,2,7c0.9-2.8,1.4-5.8,1.4-8.9V53.6
		C93.9,54.7,92.3,56.6,91.8,58.8z"/>
	<path class="st0" d="M0,63.9v6.7c0.4,3.3,1.4,6.5,2.8,9.4c0-1-0.1-2-0.2-2.9C2,72.6,0.8,68.3,0,63.9z"/>
	<path class="st1" d="M7.3,26c1.8-0.6,3.3-2,4.2-3.6c1.2-2.1,1.6-4.6,1.6-7c0.1-3.5-0.4-6.9-1-10.3c-0.7,0.5-1.4,1-2.1,1.6
		c0.1,0.9,0.1,1.8,0.1,2.8c0,2.8-0.1,5.6-1.2,8.2c-0.8,1.9-2.4,3.6-4.4,4.2c-1.3,0.4-2.6,0.5-3.9,0.3c-0.2,1-0.4,2-0.5,3.1v0.6
		C2.4,26.5,4.9,26.7,7.3,26L7.3,26z"/>
	<path class="st1" d="M17.4,36.1c2.2-1.1,3.8-3.3,4.4-5.7c0.4-1.6,0.4-3.3,0.3-5c-0.3-4.1-1.8-8-2.9-12c-1.1-3.6-2-7.3-2.7-11
		c-0.6,0.3-1.2,0.6-1.7,0.9c1.1,5.1,2.4,10.1,3.4,15.1c0.6,3,0.9,6.2,0,9.2c-0.6,2.3-2.5,4.2-4.7,5.1c-1.9,0.8-4.1,0.9-6.1,0.5
		C4.9,33,2.4,32.2,0,31.5v3.1c4,1.4,8.2,2.6,12.5,2.6C14.2,37.1,15.9,36.9,17.4,36.1L17.4,36.1z"/>
	<path class="st1" d="M5,44.5c5.6,1,11.1,2.5,16.8,2.3c2.9,0,6-0.6,8.1-2.8c2.4-2.5,3-6.3,2.4-9.6c-1.5-7.5-5.4-14-7.8-21.2
		C23.1,9.2,21.9,5,21.8,0.7c-0.8,0.2-1.6,0.4-2.3,0.7c0.9,8.3,4.7,16,7.2,23.9c1.2,3.7,2.5,7.6,1.7,11.5c-0.6,3.2-3.3,5.7-6.4,6.4
		c-3.3,0.8-6.7,0.2-10-0.3C8,42.2,4,41.1,0,40.5v3.7C1.7,44,3.3,44.3,5,44.5L5,44.5z"/>
	<path class="st1" d="M6.5,82.7C6.2,76.4,3.8,70.3,3.3,64c-0.2-2.7,0.4-5.7,2.6-7.5c1.8-1.6,4.3-1.8,6.6-1.8
		c5.5-0.1,10.9,1.1,16.3,1.2c3.2,0.1,6.7,0.2,9.7-1.2c2.9-1.3,4.5-4.4,4.8-7.4c0.2-2.4-0.4-4.8-1.2-7c-1.9-5.3-4.8-10.1-7.2-15.1
		c-2.4-4.7-4.4-9.7-5-15.1c-0.1-1.8-0.1-3.6,0.3-5.4C30.5,3,31.3,1.4,32.4,0h-4.6c-1.3,3.4-1.2,7.1-0.5,10.6
		c1.2,5.9,4.1,11.2,6.5,16.6c2.3,5.1,5.1,10.1,5.6,15.8c0.4,4.5-3.2,8.9-7.7,9.5c-5,0.7-10-0.2-14.9-0.7c-4.1-0.5-8.2-1.4-12.3-0.2
		c-2.2,0.6-3.8,2.6-4.5,4.7v7.7c0.9,4.4,2,8.7,2.6,13.1c0.1,1,0.2,2,0.2,2.9c1,2,2.2,3.9,3.7,5.6C6.6,84.7,6.6,83.7,6.5,82.7z"/>
	<path class="st1" d="M85.8,6.7c-1.4-1.2-2.9-2.2-4.5-3.1c-0.3,0-0.6,0.1-0.9,0.1C74.2,4.3,68.2,2.2,62.6,0h-5.1
		C62.9,2.3,68.3,4.6,74,6.1C77.8,7.1,81.9,7.6,85.8,6.7L85.8,6.7z"/>
	<path class="st1" d="M16.8,90.6c-0.3-5.8-2.5-11.4-2.7-17.3c-0.1-3,0.9-6.2,3.6-7.8c2.2-1.4,5-1.5,7.5-1.6c3.8,0,7.5,0.4,11.2,0.6
		c3.6,0.3,7.4,0.7,10.9-0.3c3.1-0.9,5.8-3.3,6.7-6.4c0.8-3.5-0.1-7.2-1.5-10.5c-3.3-7.7-8.5-14.4-11.7-22.1c-1.1-2.7-2-5.5-2.1-8.3
		c-0.1-3.1,1.2-6.3,3.4-8.5c2.2-2.2,5.2-3.3,8.3-3.4c3.2-0.1,6.3,0.7,9.3,1.7c7.9,2.7,15.5,6.4,23.6,8.8c3.3,0.9,6.8,1.8,10.2,1.6
		c-0.6-1.3-1.2-2.5-2-3.7c-0.6,0.1-1.2,0.2-1.7,0.2c-3.3,0.2-6.6-0.6-9.8-1.6C71,9.4,62.8,4.7,53.8,2.5c-2.4-0.6-4.9-1.1-7.4-0.8
		c-3.2,0.3-6.4,1.7-8.3,4.3c-2.6,3.3-3.4,7.8-2.3,11.8c1.3,5.4,3.9,10.4,6.7,15.1c2.6,4.5,5.4,9,6.9,14.1c0.7,2.4,1.2,4.9,0.7,7.4
		c-0.8,3.7-4.3,6.4-7.9,6.9c-6.9,0.9-13.8-0.3-20.7-0.8c-2.8-0.1-5.7,0.3-8,2c-1.1,0.9-2.1,2-2.6,3.3c-0.5,1.4-0.6,2.9-0.6,4.4
		c0.1,6.8,3.2,13.2,2.9,20c0,0.5,0,0.9-0.1,1.4c1.2,0.8,2.4,1.4,3.7,2C16.8,92.5,16.8,91.5,16.8,90.6L16.8,90.6z"/>
	<path class="st1" d="M27.3,75.5c2-1.8,4.8-2.5,7.4-2.7c5.1-0.4,10.1,0.3,15.2,0.5c2.6,0.2,5.3,0.2,7.8-0.3c2.7-0.6,5.2-2.3,6.4-4.8
		c0.9-1.7,0.9-3.6,0.9-5.4c-0.2-3.4-1.5-6.7-3-9.7c-3.3-6.9-8.1-12.9-11-20c-1-2.6-2.1-5.2-2.2-8c-0.2-2.9,1-5.7,3.1-7.7
		c2.4-2.4,5.9-3.6,9.3-3.3c8.4,0.5,16,4.5,23.7,7.7c3.7,1.5,7.3,3.1,11.1,4.3c-0.1-1-0.2-1.9-0.4-2.9C90.3,22,85.4,20,80.6,17.8
		c-5.2-2.4-10.7-4.4-16.2-5.9c-3.9-1-8.2-1.8-12.1-0.4c-3.7,1.4-6.6,5-6.9,9c-0.3,3.5,0.7,6.9,2,10c2.9,7,7.7,13,11,19.8
		c1.4,3,2.7,6.1,3,9.4c0.5,3.5-1.2,7.3-4.4,9c-2.5,1.3-5.5,1.6-8.3,1.6c-5,0-10-0.9-15-0.8c-2.2,0-4.4,0.1-6.5,0.9
		c-2.1,0.8-4.1,2.2-5.1,4.2c-1,2-0.8,4.3-0.8,6.5c0.4,4.8,1.7,9.6,2.1,14.4c1,0.2,2.1,0.3,3.2,0.4c-0.4-4.5-1.6-9-1.8-13.5
		C24.7,79.9,25.4,77.3,27.3,75.5L27.3,75.5z"/>
	<path class="st1" d="M61.6,20.7c-2.8,1.1-5,3.6-5.6,6.5c-0.9,3.9,0.3,8,1.9,11.6c3.4,7.3,8.1,13.8,11.5,21.1
		c1.8,3.9,3.1,8.3,1.9,12.6c-1,3.7-4.7,6.2-8.4,6.6c-6.5,0.5-13-0.9-19.5-0.8c-3,0-6.3,0.3-8.8,2.3c-2.3,1.9-3.3,4.9-3.4,7.8
		c0,2.5,0.4,5,0.5,7.5H35c-0.2-3-0.4-6.1,0.9-8.9c1.4-3.1,4.7-5.3,8.1-5.5c5.6-0.5,11.1,0.1,16.7,0.7c2.8,0.3,5.7,0.5,8.4-0.4
		c2.5-0.8,4.6-2.7,5.6-5.1c1-2.4,0.9-5.1,0.5-7.6c-1-4.7-3.1-9.1-5.4-13.2c-2.9-5.2-6.3-10.1-8.6-15.6c-1.4-3.4-2.3-7.3-1.2-10.9
		c0.7-2.4,2.6-4.4,4.9-5.3c2.6-1.1,5.6-1.3,8.3-0.9c3.2,0.4,6.2,1.5,9.2,2.6c4.7,1.8,9.1,4.1,13.6,6.3V30
		c-7.3-3.7-14.7-7.2-22.6-9.4C69.6,19.7,65.4,19.1,61.6,20.7L61.6,20.7z"/>
	<path class="st1" d="M71.9,30c-3.1,1.5-5.4,4.8-5.5,8.3c0,4.5,1.9,8.6,3.9,12.5c3.2,6.2,6.9,12.1,9.3,18.6
		c1.2,3.3,1.9,6.7,1.9,10.2c0,3.3-1.9,6.7-4.9,8.2c-1.6,0.9-3.5,0.9-5.3,1c-7.3,0.1-14.6-2.6-21.9-1.1c-4.2,0.7-7.5,4.3-8.1,8.4h4.3
		c1.6-3.4,5.4-5.3,9.1-5.4c6.7-0.3,13.3,1.5,20,1.9c1.8,0.1,3.8-0.1,5.3-1.1c3.2-1.9,4.8-5.8,4.7-9.3c0.1-6.6-2.9-12.7-5.6-18.6
		c-3.1-6.7-7.7-13-8.7-20.5c-0.7-3.6,1-7.5,4.1-9.5c1.6-1,3.4-1.2,5.3-1.3c5.8-0.2,11.2,2.3,16.2,5v-2.2c-4.9-2.7-10.2-4.9-15.7-6
		C77.5,28.6,74.4,28.6,71.9,30L71.9,30z"/>
	<path class="st1" d="M85.1,38.6c-3,0.3-5.7,2.3-6.9,5c-0.8,1.6-0.9,3.5-0.8,5.3c0.3,2.7,1.1,5.3,2.1,7.9c2.7,7.1,6.5,13.7,8.9,21
		c0.7,2.3,1.3,4.7,1.7,7.2c0.6-0.8,1.2-1.6,1.7-2.5c0-0.1,0-0.1-0.1-0.2c-2-8-6.1-15.2-8.8-23c-0.9-2.5-1.7-5.2-1.7-7.9
		c0-2,0.5-4,1.6-5.7c1.4-1.9,3.6-3,5.8-3.3c2.5-0.3,5,0.2,7.4,1v-2.4C92.6,39.4,88.9,38.3,85.1,38.6L85.1,38.6z"/>
	<path class="st1" d="M88.8,53.6c-0.9,1.7-0.9,3.6-0.8,5.5c0.2,3.4,1.2,6.8,2.2,10c1.1,3.2,2.3,6.4,3.4,9.7c0.4-0.9,0.7-1.8,1-2.7
		c-0.7-2.3-1.4-4.6-2-7c-0.8-3.3-1.6-6.8-0.8-10.2c0.5-2.3,2.1-4.2,4.2-5.2v-4.5C93,49.1,90.1,50.9,88.8,53.6L88.8,53.6z"/>
</g>
</svg>
