<?xml version="1.0" encoding="UTF-8"?>
<svg id="Layer_1" data-name="Layer 1"
  xmlns="http://www.w3.org/2000/svg" viewBox="0 0 96 96">
  <defs>
    <style>
      .cls-1 {
        fill: #ff5722;
      }

      .cls-2 {
        fill: #0b0304;
      }
    </style>
  </defs>
  <path class="cls-1" d="m28.8,0h38.4c15.9,0,28.8,12.9,28.8,28.8v38.4c0,15.9-12.9,28.8-28.8,28.8H28.8c-15.9,0-28.8-12.9-28.8-28.8V28.8C0,12.9,12.9,0,28.8,0Z"/>
  <g>
    <path class="cls-1" d="m4.48,21.92c2.01-.67,3.6-2.32,4.41-4.25,1.14-2.58,1.27-5.45,1.23-8.23-.01-.92-.06-1.84-.12-2.76C5.34,10.64,1.95,16.06.53,22.22c1.32.18,2.68.1,3.94-.3Z"/>
    <path class="cls-1" d="m13.49,32.82c2.21-.92,4.06-2.8,4.71-5.13.94-2.98.6-6.16.02-9.18-1-5.07-2.34-10.07-3.44-15.13-.94.52-1.85,1.09-2.73,1.71.57,3.4,1.05,6.82.98,10.27.03,2.4-.4,4.85-1.57,6.97-.9,1.65-2.36,3.06-4.18,3.63-2.37.73-4.9.49-7.29-.03v5.57c2.42.73,4.86,1.46,7.36,1.86,2.04.33,4.21.29,6.13-.55Z"/>
    <path class="cls-1" d="m22.01,43.11c3.12-.72,5.82-3.27,6.44-6.44.8-3.89-.51-7.79-1.69-11.47-2.58-7.89-6.4-15.54-7.25-23.88-1.02.34-2.01.74-2.98,1.18.73,3.69,1.65,7.34,2.71,10.96,1.12,3.95,2.57,7.86,2.91,11.98.07,1.66.09,3.35-.34,4.97-.63,2.38-2.22,4.55-4.44,5.68-1.52.75-3.24.98-4.91,1.05-4.29.04-8.45-1.17-12.46-2.58v5.97c4.04.55,7.96,1.7,11.99,2.3,3.3.53,6.72,1.07,10.02.27Z"/>
    <path class="cls-1" d="m4.51,51.59c4.03-1.16,8.22-.28,12.28.23,4.93.54,9.92,1.38,14.88.73,4.46-.6,8.09-4.99,7.66-9.5-.47-5.67-3.24-10.75-5.58-15.82-2.43-5.43-5.31-10.76-6.49-16.65-.68-3.49-.81-7.22.5-10.58h-2.21c-1.26.14-2.5.36-3.71.65.09,4.32,1.23,8.54,2.56,12.62,2.4,7.13,6.33,13.74,7.78,21.18.69,3.33.07,7.12-2.35,9.64-2.04,2.19-5.21,2.75-8.08,2.75-5.69.14-11.24-1.32-16.8-2.3-1.64-.26-3.3-.5-4.96-.33v12.03c.74-2.09,2.3-4.05,4.51-4.66Z"/>
    <path class="cls-1" d="m10.28,70.1c-.04-1.47.04-2.97.57-4.36.5-1.34,1.52-2.42,2.63-3.29,2.31-1.66,5.26-2.02,8.03-1.95,6.88.43,13.79,1.64,20.69.78,3.64-.56,7.15-3.22,7.93-6.93.42-2.46-.06-4.99-.74-7.36-1.55-5.03-4.35-9.53-6.94-14.08-2.74-4.79-5.38-9.73-6.67-15.13-1.09-4.03-.24-8.54,2.32-11.85,1.93-2.59,5.13-3.97,8.29-4.27,2.5-.31,5,.25,7.42.82,9.04,2.23,17.21,6.95,26.16,9.46,3.18.92,6.47,1.77,9.81,1.55.58-.05,1.16-.13,1.74-.24-1.57-2.47-3.51-4.69-5.73-6.58-3.91.93-8,.43-11.84-.58-5.65-1.53-11.07-3.77-16.44-6.08h-25.1c-1.05,1.41-1.94,2.98-2.29,4.72-.41,1.76-.35,3.58-.26,5.36.55,5.32,2.63,10.31,4.99,15.06,2.46,5,5.34,9.81,7.22,15.08.77,2.24,1.36,4.6,1.2,6.99-.24,3.04-1.91,6.15-4.77,7.44-3.04,1.32-6.44,1.3-9.69,1.17-5.46-.04-10.85-1.23-16.32-1.17-2.28,0-4.79.26-6.58,1.82-2.13,1.84-2.75,4.85-2.56,7.54.51,6.31,2.85,12.33,3.2,18.67.08.98.08,1.98-.08,2.95,1.89,2.28,4.13,4.25,6.64,5.86.08-.46.12-.93.12-1.39.28-6.82-2.79-13.22-2.93-20Z"/>
    <path class="cls-1" d="m80.34,3.63c.31-.02.61-.06.92-.11-3.32-1.87-7.04-3.1-11.01-3.52h-7.61c5.6,2.25,11.58,4.28,17.7,3.63Z"/>
    <path class="cls-1" d="m21.84,74.62c1.03-2.05,3-3.47,5.11-4.24,2.07-.78,4.31-.88,6.49-.87,5.03-.09,10.01.86,15.04.83,2.84-.04,5.8-.28,8.35-1.63,3.17-1.69,4.88-5.5,4.42-9-.34-3.31-1.64-6.42-3.05-9.41-3.25-6.82-8.04-12.8-10.96-19.78-1.31-3.16-2.3-6.56-1.96-10.02.35-3.98,3.17-7.59,6.91-8.96,3.92-1.46,8.2-.64,12.12.37,5.59,1.45,11.01,3.49,16.25,5.91,4.81,2.17,9.74,4.16,14.9,5.32-.42-2.17-1.09-4.25-1.98-6.22-3.44.21-6.91-.66-10.2-1.6-8.05-2.37-15.61-6.09-23.55-8.77-3.02-.95-6.14-1.77-9.33-1.65-3.06.1-6.12,1.27-8.31,3.44-2.26,2.19-3.48,5.34-3.4,8.48.09,2.89,1,5.68,2.08,8.34,3.18,7.73,8.36,14.43,11.69,22.09,1.39,3.27,2.34,6.93,1.5,10.47-.84,3.15-3.62,5.52-6.68,6.41-3.56,1.02-7.31.58-10.94.32-3.74-.15-7.47-.61-11.22-.56-2.56.06-5.27.23-7.52,1.59-2.62,1.63-3.67,4.88-3.57,7.84.28,5.85,2.41,11.43,2.74,17.28.1.97.1,1.95.01,2.92,2.02.92,4.17,1.61,6.41,2.04-.45-4.83-1.77-9.54-2.14-14.38-.06-2.19-.18-4.5.78-6.53Z"/>
    <path class="cls-1" d="m84.8,21.72c-7.64-3.22-15.23-7.24-23.67-7.72-3.38-.32-6.88.87-9.3,3.27-2.06,1.96-3.24,4.84-3.07,7.69.16,2.8,1.22,5.44,2.24,8.02,2.89,7.09,7.73,13.15,11.03,20.03,1.49,3.06,2.77,6.3,3,9.72.08,1.83,0,3.75-.86,5.41-1.25,2.47-3.74,4.17-6.41,4.76-2.57.58-5.23.52-7.84.33-5.07-.14-10.14-.86-15.21-.48-2.63.24-5.39.91-7.4,2.72-1.9,1.76-2.64,4.41-2.7,6.93.15,4.56,1.35,9.01,1.77,13.54.29.02.58.05.87.06h4.59c-.13-2.51-.53-5.01-.51-7.52.1-2.9,1.06-5.97,3.4-7.85,2.46-1.97,5.76-2.3,8.8-2.32,6.51-.19,12.96,1.23,19.47.75,3.7-.4,7.39-2.86,8.37-6.59,1.14-4.26-.2-8.7-1.95-12.6-3.38-7.29-8.17-13.83-11.53-21.14-1.6-3.58-2.77-7.63-1.88-11.55.64-2.94,2.86-5.4,5.62-6.52,3.74-1.62,7.97-1.03,11.79-.01,7.89,2.14,15.31,5.69,22.59,9.35v-1.33c0-.92-.05-1.83-.13-2.72-3.77-1.2-7.4-2.8-11.07-4.26Z"/>
    <path class="cls-1" d="m73.22,23.14c-2.8-.4-5.73-.19-8.35.93-2.27.99-4.18,2.92-4.86,5.34-1.17,3.62-.23,7.49,1.15,10.91,2.29,5.49,5.65,10.43,8.56,15.6,2.35,4.16,4.44,8.54,5.41,13.24.48,2.53.49,5.22-.47,7.64-.96,2.44-3.1,4.35-5.59,5.12-2.72.86-5.62.68-8.41.4-5.53-.52-11.1-1.11-16.66-.65-3.41.22-6.65,2.37-8.06,5.5-1.32,2.76-1.13,5.9-.9,8.86h6.32c.58-4.15,3.96-7.72,8.11-8.42,7.32-1.49,14.59,1.26,21.92,1.14,1.8-.07,3.68-.14,5.31-1,2.99-1.55,4.84-4.89,4.88-8.21,0-3.49-.78-6.93-1.95-10.2-2.38-6.55-6.15-12.45-9.31-18.64-2.05-3.86-3.95-8.01-3.94-12.47.08-3.51,2.4-6.73,5.51-8.26,2.59-1.34,5.63-1.35,8.44-.85,5.52,1.1,10.76,3.31,15.7,5.97v-3c-4.46-2.26-8.91-4.55-13.59-6.35-2.99-1.12-6.02-2.2-9.2-2.62Z"/>
    <path class="cls-1" d="m79.84,32.27c-1.81.12-3.69.37-5.26,1.35-3.13,1.91-4.77,5.87-4.09,9.45.99,7.5,5.59,13.75,8.68,20.46,2.73,5.85,5.72,11.95,5.6,18.57.04,3.6-1.53,7.45-4.72,9.35-1.59.97-3.52,1.14-5.34,1.08-6.69-.4-13.26-2.23-19.99-1.94-3.66.19-7.46,2-9.07,5.44h22.89c8.73-.42,16.43-4.73,21.44-11.22-.31-2.43-.92-4.84-1.66-7.17-2.38-7.22-6.19-13.86-8.87-20.97-.96-2.54-1.78-5.15-2.06-7.86-.15-1.78-.01-3.64.78-5.26,1.28-2.68,3.97-4.64,6.93-4.96,3.75-.27,7.43.86,10.86,2.25v-3.54c-4.95-2.74-10.38-5.24-16.16-5.02Z"/>
    <path class="cls-1" d="m88.64,42.22c-2.26.31-4.48,1.44-5.84,3.32-1.16,1.64-1.68,3.68-1.64,5.68-.05,2.73.78,5.37,1.67,7.92,2.73,7.74,6.82,14.98,8.85,22.97.02.07.03.13.05.2.7-1.13,1.31-2.31,1.85-3.54-1.1-3.24-2.29-6.46-3.4-9.7-1.09-3.25-2.09-6.57-2.24-10.01-.05-1.84-.04-3.78.84-5.45,1.33-2.7,4.23-4.46,7.22-4.53v-5.83c-2.35-.82-4.87-1.32-7.36-1.02Z"/>
    <path class="cls-1" d="m91.82,58.84c-.87,3.4-.1,6.92.75,10.24.61,2.35,1.31,4.67,2.03,6.99.9-2.8,1.4-5.78,1.4-8.87v-13.59c-2.05,1.05-3.65,2.98-4.18,5.23Z"/>
    <path class="cls-1" d="m0,63.91v6.67c.39,3.35,1.36,6.52,2.8,9.42-.03-.98-.12-1.97-.22-2.94-.54-4.44-1.73-8.77-2.58-13.15Z"/>
    <path class="cls-2" d="m7.29,25.97c1.82-.56,3.28-1.98,4.18-3.63,1.16-2.12,1.6-4.58,1.57-6.97.07-3.46-.41-6.87-.98-10.27-.71.5-1.4,1.03-2.06,1.59.06.92.11,1.84.12,2.76.04,2.78-.09,5.65-1.23,8.23-.82,1.93-2.41,3.58-4.41,4.25-1.27.41-2.63.48-3.94.3-.23,1.01-.41,2.04-.53,3.08v.63c2.39.52,4.91.75,7.29.03Z"/>
    <path class="cls-2" d="m17.37,36.09c2.22-1.13,3.81-3.3,4.44-5.68.43-1.62.41-3.31.34-4.97-.34-4.12-1.79-8.03-2.91-11.98-1.06-3.61-1.97-7.26-2.71-10.96-.59.27-1.17.57-1.74.88,1.09,5.05,2.43,10.05,3.44,15.13.57,3.01.91,6.2-.02,9.18-.65,2.34-2.5,4.22-4.71,5.13-1.92.84-4.09.88-6.13.55-2.5-.4-4.94-1.13-7.36-1.86v3.06c4.01,1.41,8.17,2.62,12.46,2.58,1.68-.08,3.39-.3,4.91-1.05Z"/>
    <path class="cls-2" d="m4.96,44.54c5.56.98,11.11,2.45,16.8,2.3,2.87,0,6.03-.57,8.08-2.75,2.42-2.52,3.04-6.31,2.35-9.64-1.45-7.45-5.38-14.05-7.78-21.18-1.34-4.08-2.47-8.3-2.56-12.62-.79.19-1.57.42-2.33.67.86,8.34,4.68,15.99,7.25,23.88,1.18,3.67,2.49,7.57,1.69,11.47-.63,3.18-3.33,5.72-6.44,6.44-3.3.8-6.72.25-10.02-.27-4.03-.6-7.95-1.75-11.99-2.3v3.67c1.66-.17,3.33.07,4.96.33Z"/>
    <path class="cls-2" d="m6.54,82.69c-.35-6.34-2.69-12.36-3.2-18.67-.19-2.7.44-5.7,2.56-7.54,1.79-1.56,4.3-1.82,6.58-1.82,5.47-.06,10.85,1.13,16.32,1.17,3.25.12,6.65.15,9.69-1.17,2.87-1.29,4.53-4.4,4.77-7.44.16-2.38-.43-4.75-1.2-6.99-1.88-5.27-4.76-10.08-7.22-15.08-2.36-4.74-4.44-9.74-4.99-15.06-.09-1.79-.15-3.61.26-5.36.35-1.74,1.24-3.31,2.29-4.72h-4.65c-1.31,3.36-1.18,7.09-.5,10.58,1.18,5.88,4.06,11.21,6.49,16.65,2.35,5.07,5.11,10.15,5.58,15.82.43,4.51-3.2,8.9-7.66,9.5-4.96.65-9.95-.19-14.88-.73-4.05-.5-8.25-1.39-12.28-.23-2.21.61-3.77,2.56-4.51,4.66v7.66c.85,4.39,2.04,8.71,2.58,13.15.1.97.19,1.96.22,2.94,1,2.02,2.24,3.91,3.67,5.63.16-.97.16-1.97.08-2.95Z"/>
    <path class="cls-2" d="m85.78,6.67c-1.4-1.19-2.91-2.24-4.52-3.14-.3.05-.61.09-.92.11-6.12.65-12.1-1.39-17.7-3.63h-5.13c5.37,2.31,10.79,4.55,16.44,6.08,3.84,1.02,7.93,1.51,11.84.58Z"/>
    <path class="cls-2" d="m16.76,90.58c-.34-5.85-2.47-11.43-2.74-17.28-.1-2.96.95-6.21,3.57-7.84,2.25-1.36,4.96-1.54,7.52-1.59,3.75-.05,7.48.41,11.22.56,3.63.27,7.38.7,10.94-.32,3.06-.9,5.84-3.26,6.68-6.41.84-3.54-.11-7.21-1.5-10.47-3.33-7.66-8.51-14.36-11.69-22.09-1.08-2.66-1.99-5.45-2.08-8.34-.08-3.13,1.15-6.29,3.4-8.48,2.19-2.17,5.25-3.34,8.31-3.44,3.19-.12,6.32.7,9.33,1.65,7.94,2.68,15.5,6.4,23.55,8.77,3.29.94,6.76,1.81,10.2,1.6-.57-1.28-1.23-2.5-1.97-3.67-.58.11-1.16.19-1.74.24-3.34.22-6.63-.63-9.81-1.55-8.95-2.52-17.12-7.23-26.16-9.46-2.42-.57-4.91-1.13-7.42-.82-3.16.3-6.36,1.68-8.29,4.27-2.56,3.31-3.41,7.82-2.32,11.85,1.29,5.4,3.93,10.35,6.67,15.13,2.58,4.55,5.39,9.05,6.94,14.08.68,2.37,1.16,4.9.74,7.36-.78,3.72-4.29,6.37-7.93,6.93-6.9.86-13.81-.35-20.69-.78-2.77-.07-5.72.29-8.03,1.95-1.11.87-2.12,1.95-2.63,3.29-.53,1.39-.61,2.89-.57,4.36.14,6.78,3.21,13.18,2.93,20,0,.47-.04.93-.12,1.39,1.17.75,2.4,1.42,3.68,2,.08-.97.08-1.95-.01-2.92Z"/>
    <path class="cls-2" d="m27.31,75.49c2.01-1.81,4.77-2.48,7.4-2.72,5.07-.38,10.14.34,15.21.48,2.61.19,5.27.24,7.84-.33,2.67-.59,5.16-2.29,6.41-4.76.86-1.66.94-3.58.86-5.41-.23-3.42-1.5-6.67-3-9.72-3.3-6.89-8.14-12.94-11.03-20.03-1.02-2.58-2.08-5.22-2.24-8.02-.17-2.85,1-5.73,3.07-7.69,2.42-2.4,5.92-3.59,9.3-3.27,8.43.48,16.03,4.5,23.67,7.72,3.68,1.45,7.3,3.06,11.07,4.26-.09-.96-.23-1.91-.41-2.85-5.16-1.17-10.09-3.16-14.9-5.32-5.24-2.42-10.67-4.45-16.25-5.91-3.92-1.01-8.2-1.83-12.12-.37-3.74,1.37-6.56,4.98-6.91,8.96-.34,3.45.65,6.86,1.96,10.02,2.93,6.98,7.72,12.96,10.96,19.78,1.41,2.98,2.71,6.09,3.05,9.41.46,3.51-1.24,7.32-4.42,9-2.55,1.35-5.51,1.59-8.35,1.63-5.03.04-10.01-.91-15.04-.83-2.19-.02-4.43.09-6.49.87-2.11.77-4.08,2.2-5.11,4.24-.96,2.04-.84,4.34-.78,6.53.36,4.84,1.69,9.55,2.14,14.38,1.04.2,2.1.34,3.18.43-.42-4.53-1.62-8.98-1.77-13.54.06-2.52.8-5.17,2.7-6.93Z"/>
    <path class="cls-2" d="m61.62,20.69c-2.76,1.12-4.98,3.58-5.62,6.52-.89,3.93.28,7.97,1.88,11.55,3.36,7.31,8.15,13.84,11.53,21.14,1.75,3.9,3.09,8.33,1.95,12.6-.98,3.73-4.67,6.19-8.37,6.59-6.51.48-12.96-.94-19.47-.75-3.04.02-6.34.35-8.8,2.32-2.34,1.87-3.3,4.95-3.4,7.85-.02,2.52.38,5.01.51,7.52h3.19c-.23-2.96-.42-6.1.9-8.86,1.41-3.14,4.65-5.28,8.06-5.5,5.56-.46,11.13.13,16.66.65,2.8.28,5.69.46,8.41-.4,2.5-.77,4.64-2.68,5.59-5.12.96-2.42.95-5.11.47-7.64-.97-4.7-3.06-9.08-5.41-13.24-2.9-5.17-6.26-10.11-8.56-15.6-1.38-3.42-2.32-7.29-1.15-10.91.68-2.42,2.59-4.35,4.86-5.34,2.62-1.11,5.55-1.33,8.35-.93,3.18.42,6.21,1.5,9.2,2.62,4.67,1.79,9.13,4.08,13.59,6.35v-2.07c-7.28-3.66-14.7-7.21-22.59-9.35-3.82-1.02-8.04-1.61-11.79.01Z"/>
    <path class="cls-2" d="m71.86,29.98c-3.1,1.53-5.42,4.75-5.51,8.26-.01,4.46,1.88,8.61,3.94,12.47,3.16,6.18,6.92,12.09,9.31,18.64,1.17,3.27,1.95,6.71,1.95,10.2-.04,3.32-1.89,6.66-4.88,8.21-1.63.86-3.51.93-5.31,1-7.33.12-14.6-2.63-21.92-1.14-4.15.7-7.52,4.26-8.11,8.42h4.32c1.61-3.44,5.41-5.26,9.07-5.44,6.73-.29,13.31,1.54,19.99,1.94,1.82.06,3.75-.11,5.34-1.08,3.19-1.9,4.76-5.75,4.72-9.35.12-6.62-2.87-12.72-5.6-18.57-3.09-6.72-7.7-12.96-8.68-20.46-.68-3.58.96-7.54,4.09-9.45,1.56-.98,3.45-1.23,5.26-1.35,5.79-.21,11.21,2.29,16.16,5.02v-2.19c-4.94-2.66-10.18-4.87-15.7-5.97-2.81-.49-5.86-.49-8.44.85Z"/>
    <path class="cls-2" d="m85.14,38.58c-2.96.32-5.66,2.28-6.93,4.96-.8,1.62-.93,3.49-.78,5.26.28,2.71,1.1,5.32,2.06,7.86,2.68,7.11,6.48,13.74,8.87,20.97.74,2.33,1.34,4.74,1.66,7.17.62-.8,1.2-1.63,1.73-2.5-.02-.07-.03-.13-.05-.2-2.03-7.99-6.12-15.23-8.85-22.97-.89-2.55-1.72-5.19-1.67-7.92-.04-2,.49-4.04,1.64-5.68,1.36-1.88,3.58-3.01,5.84-3.32,2.49-.3,5.01.2,7.36,1.02v-2.4c-3.44-1.39-7.12-2.52-10.86-2.25Z"/>
    <path class="cls-2" d="m88.78,53.6c-.88,1.67-.89,3.61-.84,5.45.16,3.44,1.16,6.77,2.24,10.01,1.11,3.24,2.3,6.45,3.4,9.7.39-.88.73-1.78,1.03-2.7-.72-2.32-1.43-4.64-2.03-6.99-.85-3.32-1.62-6.84-.75-10.24.53-2.26,2.13-4.19,4.18-5.23v-4.54c-2.99.07-5.89,1.84-7.22,4.53Z"/>
  </g>
</svg>