<?xml version="1.0" encoding="utf-8"?>
<!-- Generator: Adobe Illustrator 22.1.0, SVG Export Plug-In . SVG Version: 6.00 Build 0)  -->
<svg version="1.1" id="Layer_1_1_" xmlns="http://www.w3.org/2000/svg" xmlns:xlink="http://www.w3.org/1999/xlink" x="0px" y="0px"
	 viewBox="0 0 1000 1000" style="enable-background:new 0 0 1000 1000;" xml:space="preserve">
<style type="text/css">
	.st0{fill:#FF5722;}
</style>
<g>
	<path class="st0" d="M1000,500c0-170.018-85.033-319.984-214.703-410.317L443.123,498.036v3.36l100.033,120.146l144.84-362.124
		l48.621,8.929L577.873,662.698l206.912,248.002C914.753,820.406,1000,670.249,1000,500z M742.316,700.576l166.115-201.133
		l-166.675-199.45h77.873l153.793,185.161v29.68L818.794,700.576H742.316z"/>
	<path class="st0" d="M0,500c0,112.684,37.223,216.422,99.421,300.583V199.417C37.223,283.578,0,387.316,0,500z"/>
	<path class="st0" d="M278.751,463.784L646.645,22.106C600.652,8.155,550.55,0,500,0c-89.347,0-173.03,23.715-245.616,64.772
		v870.456C326.97,976.285,410.653,1000,500,1000c51.114,0,100.402-7.753,146.845-22.003L278.751,536.204V463.784z"/>
</g>
</svg>
