<?xml version="1.0" encoding="utf-8"?>
<!-- Generator: Adobe Illustrator 27.2.0, SVG Export Plug-In . SVG Version: 6.00 Build 0)  -->
<svg version="1.1" id="Layer_1" xmlns="http://www.w3.org/2000/svg" xmlns:xlink="http://www.w3.org/1999/xlink" x="0px" y="0px"
	 viewBox="0 0 1000 1000" style="enable-background:new 0 0 1000 1000;" xml:space="preserve">
<style type="text/css">
	.st0{fill:#FF5722;}
	.st1{fill:#2C1C17;}
	.st2{fill:#FFB5A0;}
</style>
<g id="Layer_1_00000139981052754003316350000012194987565174587017_">
	<path class="st0" d="M140.5,341.8c23.1-9.5,42.3-29.1,49.1-53.5c9.8-31,6.2-64.2,0.2-95.6c-4.8-24-10.3-47.9-15.9-71.8
		c-13.3,11.5-26,23.6-38,36.4c0,0.9,0,1.8,0,2.6c0.3,25-4.2,50.6-16.3,72.6c-9.4,17.1-24.6,31.9-43.6,37.8
		c-7.3,2.2-14.8,3.6-22.4,4.3c-10,19.8-18.7,40.3-26.1,61.5c16.2,4.6,32.6,8.6,49.2,11.3C97.9,350.9,120.5,350.5,140.5,341.8
		L140.5,341.8L140.5,341.8z"/>
	<path class="st0" d="M229.3,449c32.5-7.5,60.6-34,67.1-67.1c8.3-40.5-5.3-81.2-17.6-119.4C259.7,204,234,146.8,217.6,87.4
		c-9.1,6.2-17.9,12.7-26.5,19.5c3,11.1,6.1,22.2,9.4,33.3c11.6,41.1,26.7,81.8,30.3,124.8c0.7,17.3,1,34.9-3.5,51.8
		c-6.6,24.8-23.1,47.4-46.2,59.2c-15.9,7.8-33.7,10.2-51.2,11c-38.2,0.4-75.5-8.8-111.7-20.7C13,384.7,8.9,403.7,5.9,423
		c40,6,79,17.1,119,23.1C159.2,451.6,194.9,457.3,229.3,449L229.3,449L229.3,449z"/>
	<path class="st0" d="M47,537.3c42-12.1,85.7-2.9,127.9,2.4c51.4,5.7,103.3,14.4,155,7.6c46.4-6.2,84.2-51.9,79.8-98.9
		c-4.9-59-33.7-112-58.2-164.8c-25.3-56.6-55.3-112.1-67.6-173.4c-3.8-19.2-5.9-39.1-5.1-58.8c-14.6,7.2-28.8,15.1-42.5,23.6
		c4.8,21.3,11.1,42.4,17.9,63.1c25,74.2,65.9,143.1,81,220.6c7.2,34.7,0.7,74.1-24.5,100.4c-21.3,22.8-54.3,28.6-84.1,28.7
		c-59.3,1.5-117-13.8-175-24c-16.5-2.6-33.4-5-50.1-3.5C0.5,473.4,0,486.6,0,500c0,25,1.8,49.5,5.4,73.5
		C14.2,556.7,28.4,542.4,47,537.3L47,537.3L47,537.3z"/>
	<path class="st0" d="M113,684.7c5.2-14,15.8-25.2,27.4-34.2c24.1-17.3,54.8-21,83.6-20.3c71.7,4.5,143.6,17,215.5,8.1
		c37.9-5.8,74.4-33.5,82.6-72.2c4.4-25.7-0.7-52-7.8-76.7c-16.1-52.4-45.4-99.3-72.2-146.6c-28.5-49.9-56-101.3-69.5-157.6
		c-11.4-41.9-2.5-88.9,24.1-123.4c20.1-27,53.5-41.4,86.4-44.5c26.1-3.2,52,2.6,77.3,8.5c92.7,22.9,176.6,70.8,268,97.2
		C740.6,46.4,625.7,0,500,0c-64.2,0-125.5,12.1-181.9,34.1c-1.9,4.9-3.4,9.9-4.4,15c-4.2,18.3-3.6,37.2-2.7,55.9
		c5.7,55.3,27.4,107.4,52,156.8c25.6,52,55.6,102.2,75.2,157c8,23.3,14.1,48,12.5,72.8c-2.5,31.7-19.9,64.1-49.7,77.5
		c-31.6,13.8-67.1,13.5-100.9,12.2c-56.9-0.4-113-12.8-170-12.2c-23.8,0-49.8,2.8-68.5,19c-22.2,19.2-28.7,50.5-26.7,78.6
		c0.6,7.9,1.6,15.8,2.7,23.6c20.9,50.6,49.8,97.1,85.2,137.8c-7.4-32.4-14.8-64.7-15.5-98C106.7,714.8,107.5,699.1,113,684.7
		L113,684.7L113,684.7z"/>
	<path class="st0" d="M227.5,777.1c10.7-21.3,31.2-36.2,53.2-44.2c21.5-8.1,44.9-9.2,67.6-9c52.4-0.9,104.3,9,156.7,8.6
		c29.5-0.4,60.4-2.9,87-17c33.1-17.5,50.8-57.2,46-93.8c-3.6-34.5-17-66.9-31.8-98c-33.8-71-83.7-133.2-114.2-206
		c-13.6-32.9-24-68.4-20.4-104.3c3.6-41.4,33-79,72-93.3c40.8-15.2,85.4-6.7,126.2,3.8c58.2,15.2,114.7,36.3,169.3,61.5
		c23.7,10.7,47.7,21,72.1,30.1c-13.9-20-29.2-38.9-45.7-56.7c-83.1-24.7-161.3-63.1-243.3-90.8c-31.4-9.9-64-18.4-97.2-17.2
		c-31.9,1-63.8,13.2-86.6,35.8c-23.5,22.8-36.3,55.7-35.5,88.3c1,30.1,10.4,59.1,21.7,86.8c33.2,80.5,87.1,150.3,121.8,230
		c14.5,34,24.4,72.2,15.7,109c-8.7,32.8-37.7,57.4-69.6,66.8c-37.1,10.6-76.1,6.1-114,3.3c-39-1.5-77.8-6.4-116.9-5.8
		c-26.7,0.6-54.9,2.4-78.3,16.6c-27.3,17-38.2,50.8-37.2,81.6c1.7,36.1,10.2,71.3,17.6,106.6c20.7,18.9,43,36,66.7,51.2
		c-4.6-25.2-9.1-50.4-11-76C218.7,822.3,217.5,798.3,227.5,777.1L227.5,777.1L227.5,777.1z"/>
	<path class="st0" d="M361.7,840c25.6-20.5,60-23.9,91.7-24.1c67.8-2,135,12.8,202.8,7.8c38.5-4.2,77-29.8,87.2-68.6
		c11.9-44.4-2.1-90.6-20.3-131.2c-35.2-76-85.1-144-120.1-220.1c-16.7-37.3-28.9-79.4-19.6-120.3c6.7-30.6,29.8-56.2,58.5-67.9
		c39-16.9,83-10.8,122.8-0.1c65.6,17.8,128.1,45,189.2,74.6c-7.1-15.3-15-30.2-23.5-44.7c-15.7-6.4-31.3-12.8-47-19
		c-79.5-33.5-158.7-75.4-246.5-80.4c-35.2-3.3-71.7,9.1-96.9,34c-21.5,20.4-33.7,50.4-31.9,80.1c1.6,29.2,12.7,56.7,23.3,83.6
		c30.1,73.9,80.5,136.9,114.9,208.6c15.5,31.8,28.8,65.6,31.2,101.3c0.8,19,0,39.1-9,56.4c-13,25.8-38.9,43.5-66.7,49.6
		c-26.7,6-54.5,5.5-81.6,3.5c-52.8-1.4-105.6-9-158.5-5c-27.4,2.5-56.1,9.4-77.1,28.3c-19.8,18.3-27.5,46-28.1,72.2
		c0.9,28.3,5.7,56.1,10.4,84c20.1,10.6,41,19.9,62.5,27.7c-1.5-16.1-3.1-32.2-2.9-48.4C327.3,891.5,337.4,859.5,361.7,840L361.7,840
		L361.7,840z"/>
	<path class="st0" d="M829.2,722.2c-24.8-68.2-64.1-129.7-97-194.1c-21.4-40.1-41.1-83.4-41-129.8c0.8-36.6,25-70.1,57.3-86
		c27-14,58.7-14,88-8.9c49.5,9.9,96.9,28.3,141.9,51c-3.9-12.7-8.2-25.2-13.1-37.5c-35-17.6-70.3-34.5-106.9-48.5
		c-31.1-11.6-62.7-22.9-95.8-27.3c-29.1-4.2-59.7-1.9-87,9.6c-23.7,10.3-43.6,30.4-50.6,55.6c-12.2,37.6-2.4,78.1,12,113.6
		C661,477,696,528.5,726.2,582.3c24.5,43.3,46.2,88.9,56.3,137.9c5,26.3,5.1,54.4-4.9,79.6c-10,25.5-32.3,45.3-58.3,53.3
		c-28.3,9-58.5,7-87.6,4.2c-57.6-5.4-115.6-11.5-173.5-6.8c-35.5,2.3-69.3,24.6-84,57.3c-11,22.9-11.9,48.4-10.6,73.4
		c22,6.2,44.7,11,67.8,14.2c7.9-41.2,42-75.9,83.7-83c76.3-15.5,152,13.1,228.3,11.9c7.8-0.3,15.8-0.6,23.7-1.5
		c26.8-17,52-36.5,75-58.1c4.6-11.5,7.2-23.9,7.4-36.3C849.4,792.1,841.4,756.2,829.2,722.2L829.2,722.2L829.2,722.2z"/>
	<path class="st0" d="M570.1,943.3c-37.9,1.9-77.2,20.7-94.2,56.1c8,0.4,16,0.6,24.1,0.6c73.7,0,143.7-16,206.7-44.6
		C661.3,948.8,616.1,941.3,570.1,943.3L570.1,943.3L570.1,943.3z"/>
	<path class="st0" d="M806.5,508.2c-1.5-18.5-0.2-37.9,8.2-54.8c13.3-27.9,41.4-48.3,72.2-51.6c36.9-2.6,73.1,7.7,107.2,21.1
		c-2.2-14.3-5-28.4-8.4-42.3c-47.6-25.3-99.3-46.5-154-44.5c-18.8,1.3-38.5,3.8-54.8,14.1c-32.6,19.9-49.7,61.1-42.6,98.4
		c10.3,78.1,58.2,143.1,90.5,213.1c24,51.5,50,104.8,56.7,161.7c10.7-12.6,20.7-25.7,30.2-39.3c-24.7-65.9-58.9-128-83.7-193.9
		C818,563.6,809.4,536.4,806.5,508.2L806.5,508.2L806.5,508.2z"/>
	<path class="st0" d="M923.3,439.6c-23.6,3.3-46.7,15-60.8,34.6c-12,17.1-17.5,38.3-17.1,59.1c-0.5,28.4,8.2,55.9,17.4,82.5
		c17.8,50.6,41.3,99.1,61.5,148.8c6.8-10.9,13.2-22.1,19.2-33.5c-1.4-4-2.7-7.9-4.1-11.8c-11.3-33.8-21.8-68.5-23.4-104.3
		c-0.5-19.2-0.5-39.4,8.7-56.8c13.9-28,44-46.4,75.1-47.2c0.1-3.6,0.1-7.3,0.1-11c0-17.1-0.9-34-2.5-50.6
		C973.7,441.3,948.4,436.6,923.3,439.6L923.3,439.6L923.3,439.6z"/>
	<path class="st0" d="M956.5,612.7c-7.3,28.2-3.6,57.3,2.7,85.5c18.7-43.2,31.4-89.5,37.2-138C976.8,571.4,961.7,590.6,956.5,612.7
		L956.5,612.7L956.5,612.7z"/>
	<path class="st1" d="M119.5,232.6c12.1-22.1,16.6-47.6,16.3-72.6c0-0.9,0-1.8,0-2.6c-32.7,34.8-60.5,74.2-82.3,117.3
		c7.5-0.7,15-2,22.4-4.3C94.9,264.6,110.1,249.8,119.5,232.6L119.5,232.6L119.5,232.6z"/>
	<path class="st1" d="M129.8,386.9c17.4-0.8,35.3-3.1,51.2-11c23.1-11.8,39.7-34.4,46.2-59.2c4.5-16.9,4.3-34.5,3.5-51.8
		c-3.6-42.9-18.6-83.6-30.3-124.8c-3.2-11.1-6.4-22.2-9.4-33.3c-5.8,4.6-11.6,9.3-17.2,14.2c5.7,23.8,11.2,47.7,15.9,71.8
		c6,31.4,9.5,64.5-0.2,95.6c-6.8,24.3-26,43.9-49.1,53.5c-20,8.8-42.6,9.2-63.9,5.7c-16.6-2.7-33-6.7-49.2-11.3
		c-3.4,9.9-6.5,19.9-9.3,30C54.3,378.1,91.6,387.2,129.8,386.9L129.8,386.9L129.8,386.9z"/>
	<path class="st1" d="M51.7,463.9c57.9,10.2,115.7,25.5,175,24c29.9,0,62.8-5.9,84.2-28.7c25.2-26.3,31.6-65.7,24.5-100.4
		c-15.1-77.5-56-146.4-81-220.6c-6.8-20.7-13.1-41.8-17.9-63.1c-6.4,3.9-12.6,8-18.8,12.3c16.4,59.4,42.1,116.6,61.2,175.1
		c12.3,38.2,25.9,78.9,17.6,119.4c-6.5,33.1-34.7,59.6-67.1,67.1c-34.4,8.3-70,2.6-104.4-2.9c-40-6-79-17.1-119-23.1
		c-1.9,12.3-3.3,24.7-4.3,37.3C18.4,458.8,35.2,461.3,51.7,463.9L51.7,463.9L51.7,463.9z"/>
	<path class="st1" d="M61.5,588.1c18.7-16.2,44.8-19,68.5-19c56.9-0.7,113.1,11.8,170,12.2c33.8,1.3,69.3,1.5,100.9-12.2
		c29.9-13.5,47.2-45.8,49.7-77.5c1.6-24.8-4.5-49.5-12.5-72.8c-19.5-54.8-49.5-105-75.2-157c-24.5-49.4-46.2-101.5-52-156.8
		c-1-18.6-1.5-37.6,2.7-55.9c1-5.2,2.5-10.2,4.4-15c-13.4,5.2-26.5,11-39.3,17.3c-0.8,19.7,1.3,39.6,5.1,58.8
		c12.3,61.3,42.3,116.8,67.6,173.4c24.4,52.8,53.2,105.7,58.2,164.8c4.5,47-33.3,92.7-79.8,98.9c-51.7,6.8-103.6-1.9-155-7.6
		c-42.2-5.2-85.9-14.5-127.9-2.4c-18.6,5.1-32.8,19.4-41.7,36.2c6,40.7,16.9,79.9,32.1,116.8c-1.1-7.8-2-15.7-2.7-23.6
		C32.8,638.6,39.4,607.3,61.5,588.1L61.5,588.1L61.5,588.1z"/>
	<path class="st1" d="M183.3,681.7c23.4-14.2,51.6-16,78.3-16.6c39-0.5,77.9,4.3,116.9,5.8c37.9,2.8,76.9,7.3,114-3.3
		c31.9-9.3,60.9-33.9,69.6-66.8c8.7-36.8-1.1-75-15.7-109c-34.7-79.8-88.6-149.5-121.8-230c-11.2-27.7-20.7-56.7-21.7-86.8
		c-0.8-32.6,11.9-65.5,35.5-88.3C461.2,64.1,493.1,52,525,50.9c33.2-1.2,65.8,7.3,97.2,17.2c82.1,27.7,160.2,66.1,243.3,90.8
		c-11.8-12.6-24.2-24.6-37.1-35.9c-91.5-26.5-175.4-74.3-268-97.2c-25.2-6-51.2-11.7-77.2-8.5c-32.9,3.1-66.2,17.5-86.4,44.5
		c-26.6,34.4-35.5,81.4-24.1,123.4c13.5,56.3,41,107.7,69.5,157.6c26.9,47.4,56.1,94.2,72.2,146.6c7.1,24.7,12.1,51,7.8,76.7
		c-8.1,38.7-44.7,66.4-82.6,72.2c-71.9,9-143.8-3.6-215.5-8.1c-28.8-0.7-59.6,3.1-83.6,20.3c-11.6,9-22.1,20.3-27.4,34.2
		c-5.5,14.4-6.3,30.1-5.9,45.4c0.7,33.3,8.2,65.6,15.5,98c12.8,14.7,26.5,28.7,41,41.9c-7.4-35.3-15.9-70.5-17.6-106.6
		C145,732.6,156,698.7,183.3,681.7L183.3,681.7L183.3,681.7z"/>
	<path class="st1" d="M284.5,786.2c21-18.9,49.6-25.8,77.1-28.3c52.9-4,105.7,3.5,158.5,5c27.2,2,54.9,2.5,81.6-3.5
		c27.8-6.2,53.8-23.8,66.7-49.6c8.9-17.3,9.8-37.3,9-56.4c-2.4-35.7-15.7-69.5-31.2-101.3c-34.3-71.7-84.8-134.7-114.9-208.6
		c-10.7-26.9-21.7-54.4-23.3-83.6c-1.8-29.7,10.4-59.6,31.9-80.1c25.2-25,61.7-37.4,96.9-34c87.8,4.9,167,46.9,246.5,80.4
		c15.7,6.2,31.4,12.7,47,19c-6-10.1-12.4-20-19-29.7c-24.4-9.2-48.4-19.4-72.1-30.1c-54.6-25.1-111.1-46.3-169.3-61.5
		c-40.8-10.5-85.5-19-126.2-3.8c-38.9,14.3-68.4,51.9-72,93.4c-3.6,35.9,6.8,71.4,20.4,104.3c30.5,72.7,80.4,135,114.2,206
		c14.7,31.1,28.2,63.5,31.8,98c4.8,36.5-13,76.2-46,93.8c-26.6,14.1-57.4,16.6-87,17c-52.4,0.4-104.3-9.5-156.7-8.6
		c-22.8-0.2-46.1,0.9-67.6,9c-22,8-42.5,22.9-53.2,44.2c-10,21.2-8.8,45.2-8.1,68c1.9,25.6,6.4,50.8,11,76
		c11.8,7.6,23.9,14.7,36.4,21.2c-4.7-27.9-9.5-55.7-10.4-84C256.9,832.1,264.7,804.4,284.5,786.2L284.5,786.2L284.5,786.2z"/>
	<path class="st1" d="M374.2,907.7c14.7-32.7,48.5-55,84-57.3c57.9-4.8,115.9,1.3,173.6,6.8c29.1,2.9,59.3,4.8,87.6-4.2
		c26-8,48.3-27.9,58.3-53.3c10-25.2,9.8-53.3,4.9-79.6c-10.1-49-31.9-94.6-56.3-137.9C696,528.4,661,477,637.1,419.8
		c-14.4-35.6-24.1-76-12-113.6c7-25.2,26.9-45.3,50.6-55.6c27.3-11.6,57.8-13.8,87-9.6c33.1,4.4,64.7,15.6,95.8,27.3
		c36.6,14,71.9,31,106.9,48.5c-3.6-9.1-7.4-18-11.5-26.8c-61.1-29.6-123.6-56.8-189.2-74.6c-39.8-10.6-83.8-16.8-122.8,0.1
		c-28.8,11.7-51.9,37.3-58.5,67.9c-9.3,40.9,2.9,83,19.6,120.3c35,76.1,84.9,144.2,120.1,220.1c18.2,40.6,32.2,86.8,20.3,131.2
		c-10.2,38.8-48.7,64.4-87.2,68.6c-67.8,5-135-9.8-202.8-7.8c-31.7,0.2-66,3.7-91.7,24.1c-24.3,19.5-34.4,51.5-35.4,81.7
		c-0.1,16.2,1.4,32.3,2.9,48.4c11.3,4.1,22.7,7.8,34.3,11.1C362.3,956.1,363.2,930.6,374.2,907.7L374.2,907.7L374.2,907.7z"/>
	<path class="st1" d="M734.3,448.5c-7.1-37.3,10-78.5,42.6-98.4c16.3-10.2,36-12.8,54.8-14.1c54.7-2,106.3,19.3,154,44.5
		c-2.2-8.9-4.6-17.6-7.2-26.2c-45.1-22.6-92.4-41-141.9-51c-29.3-5.1-61-5.1-88,8.9c-32.3,16-56.5,49.5-57.3,86
		c-0.1,46.4,19.6,89.7,41,129.8c32.9,64.4,72.1,125.9,97,194.1c12.2,34,20.3,69.9,20.3,106.2c-0.2,12.4-2.7,24.7-7.4,36.3
		c13.9-13,27-26.8,39.3-41.4c-6.7-56.9-32.7-110.2-56.7-161.7C792.5,591.6,744.6,526.6,734.3,448.5L734.3,448.5z"/>
	<path class="st1" d="M515,912.4c-41.6,7-75.8,41.8-83.7,83c14.7,2,29.5,3.4,44.5,4.1c17-35.5,56.3-54.2,94.2-56.1
		c45.9-2,91.2,5.5,136.5,12.1c21-9.5,41.1-20.5,60.4-32.7c-7.9,0.9-15.8,1.2-23.7,1.5C667,925.5,591.4,896.9,515,912.4L515,912.4
		L515,912.4z"/>
	<path class="st1" d="M845.4,533.3c-0.4-20.8,5.1-42,17.1-59.1c14.1-19.6,37.2-31.3,60.8-34.6c25.1-3,50.4,1.7,74.1,9.7
		c-0.9-8.9-2-17.8-3.4-26.5c-34.1-13.4-70.3-23.7-107.2-21.1c-30.8,3.3-58.9,23.7-72.2,51.6c-8.3,16.9-9.7,36.3-8.2,54.8
		c2.9,28.2,11.5,55.4,21.4,81.9c24.8,65.9,59,128,83.7,193.9c4.4-6.3,8.6-12.8,12.7-19.3c-20.2-49.7-43.7-98.2-61.5-148.8
		C853.5,589.3,844.9,561.8,845.4,533.3L845.4,533.3L845.4,533.3z"/>
	<path class="st1" d="M924.8,558.2c-9.2,17.4-9.2,37.6-8.7,56.8c1.6,35.8,12.1,70.5,23.4,104.3c1.3,4,2.7,7.9,4.1,11.8
		c5.6-10.7,10.8-21.7,15.7-32.9c-6.3-28.2-10-57.2-2.7-85.5c5.2-22.2,20.3-41.3,39.9-52.5c1.9-16.2,3.1-32.6,3.5-49.2
		C968.8,511.8,938.6,530.2,924.8,558.2L924.8,558.2L924.8,558.2z"/>
</g>
<g id="Layer_2_00000139279228941946613570000016389902830947992994_">
	<path class="st2" d="M259,800V682.9L518.5,339H272.5V200H741v117.1L480.6,661h252.8v139L259,800L259,800z"/>
</g>
</svg>
