<?xml version="1.0" encoding="UTF-8"?>
<svg xmlns="http://www.w3.org/2000/svg" viewBox="0 0 1000 1000">
  <defs>
    <style>
      .cls-1 {
        fill: #ffb5a0;
      }

      .cls-2 {
        fill: #ff5722;
      }

      .cls-3 {
        fill: #0b0304;
      }
    </style>
  </defs>
  <g id="Layer_1" data-name="Layer 1">
    <path class="cls-2" d="m140.52,341.78c23.05-9.55,42.3-29.15,49.05-53.47,9.75-31.02,6.2-64.17.23-95.55-4.76-24.04-10.27-47.92-15.94-71.76-13.3,11.46-25.99,23.61-38.02,36.39,0,.87-.02,1.75-.03,2.62.32,24.98-4.22,50.55-16.33,72.63-9.42,17.15-24.58,31.9-43.57,37.77-7.34,2.24-14.82,3.6-22.37,4.27-10.01,19.79-18.73,40.33-26.08,61.52,16.21,4.56,32.55,8.62,49.18,11.28,21.28,3.47,43.87,3.05,63.88-5.7h0Z"/>
    <path class="cls-2" d="m229.28,448.98c32.45-7.53,60.58-34.02,67.12-67.12,8.28-40.55-5.33-81.17-17.62-119.42-19.12-58.47-44.77-115.68-61.22-175.09-9.06,6.21-17.91,12.71-26.53,19.49,2.99,11.14,6.12,22.25,9.36,33.33,11.65,41.15,26.73,81.83,30.28,124.77.73,17.28.97,34.9-3.53,51.75-6.55,24.83-23.13,47.42-46.22,59.18-15.85,7.83-33.72,10.17-51.17,10.97-38.23.36-75.52-8.79-111.65-20.66-5.14,18.54-9.24,37.52-12.23,56.86,39.98,5.98,79.01,17.11,118.99,23.08,34.38,5.48,70,11.18,104.4,2.85h.02Z"/>
    <path class="cls-2" d="m47.02,537.27c41.95-12.1,85.67-2.87,127.9,2.38,51.38,5.67,103.28,14.4,155,7.6,46.43-6.25,84.25-51.92,79.77-98.92-4.93-59.05-33.73-111.98-58.17-164.77-25.32-56.57-55.28-112.07-67.58-173.35-3.77-19.2-5.92-39.1-5.09-58.76-14.59,7.21-28.77,15.1-42.51,23.65,4.81,21.34,11.13,42.39,17.9,63.08,25.02,74.25,65.93,143.07,81.03,220.6,7.2,34.72.73,74.12-24.45,100.38-21.3,22.77-54.27,28.65-84.15,28.68-59.27,1.48-117.03-13.75-174.97-23.98-16.54-2.62-33.37-5.05-50.14-3.54C.53,473.41,0,486.64,0,499.99,0,524.95,1.84,549.49,5.37,573.47c8.83-16.81,23-31.11,41.65-36.21h0Z"/>
    <path class="cls-2" d="m113.03,684.65c5.25-13.97,15.8-25.2,27.37-34.25,24.05-17.28,54.8-21.03,83.63-20.35,71.68,4.48,143.63,17.05,215.5,8.08,37.88-5.83,74.45-33.48,82.58-72.2,4.38-25.65-.65-51.95-7.75-76.67-16.15-52.38-45.35-99.27-72.25-146.62-28.52-49.85-56.02-101.32-69.47-157.58-11.38-41.93-2.48-88.93,24.13-123.37,20.15-27,53.48-41.38,86.37-44.5,26.07-3.18,52.03,2.58,77.25,8.55,92.66,22.89,176.57,70.75,268.02,97.24C740.57,46.39,625.71,0,500,0c-64.17,0-125.51,12.09-181.87,34.11-1.86,4.88-3.37,9.89-4.41,15.04-4.23,18.3-3.65,37.25-2.7,55.87,5.73,55.35,27.43,107.42,51.97,156.82,25.65,52.03,55.65,102.18,75.2,157.02,7.98,23.33,14.13,47.95,12.48,72.78-2.52,31.68-19.88,64.05-49.73,77.5-31.65,13.75-67.08,13.5-100.92,12.22-56.9-.38-113.02-12.83-169.97-12.18-23.77,0-49.85,2.75-68.53,18.95-22.15,19.2-28.67,50.47-26.72,78.57.64,7.9,1.56,15.75,2.68,23.57,20.86,50.64,49.78,97.11,85.19,137.8-7.39-32.37-14.83-64.74-15.53-98.01-.42-15.3.38-30.97,5.9-45.4h-.01Z"/>
    <path class="cls-2" d="m227.48,777.08c10.68-21.3,31.2-36.15,53.2-44.2,21.53-8.1,44.87-9.2,67.65-9.03,52.4-.9,104.28,8.98,156.67,8.62,29.55-.43,60.42-2.92,86.98-17.02,33.07-17.55,50.85-57.25,46.03-93.77-3.58-34.5-17.05-66.9-31.77-97.97-33.82-70.98-83.7-133.25-114.18-205.95-13.62-32.87-24-68.37-20.42-104.3,3.62-41.45,33.05-79.03,71.97-93.35,40.8-15.18,85.42-6.67,126.25,3.83,58.2,15.15,114.72,36.35,169.3,61.5,23.71,10.69,47.71,20.97,72.11,30.13-13.86-20.01-29.15-38.95-45.71-56.69-83.13-24.69-161.27-63.09-243.35-90.75-31.43-9.87-64-18.38-97.22-17.18-31.85,1.03-63.78,13.2-86.58,35.78-23.53,22.78-36.27,55.65-35.47,88.28.98,30.08,10.43,59.12,21.67,86.8,33.17,80.52,87.12,150.28,121.78,230.05,14.52,34.02,24.37,72.2,15.65,109.05-8.73,32.85-37.68,57.43-69.6,66.77-37.12,10.62-76.13,6.08-113.98,3.3-38.98-1.53-77.83-6.38-116.87-5.83-26.68.58-54.92,2.38-78.32,16.58-27.32,16.97-38.25,50.82-37.23,81.6,1.7,36.14,10.2,71.29,17.57,106.6,20.73,18.86,43.04,35.99,66.72,51.19-4.59-25.21-9.11-50.43-11.01-76.01-.65-22.82-1.85-46.83,8.15-68.03h0Z"/>
    <path class="cls-2" d="m361.7,839.95c25.65-20.48,60-23.9,91.67-24.13,67.77-1.98,135,12.78,202.78,7.78,38.55-4.15,76.97-29.78,87.22-68.58,11.88-44.4-2.1-90.58-20.35-131.18-35.23-75.97-85.13-144.05-120.13-220.13-16.68-37.33-28.87-79.42-19.57-120.32,6.65-30.62,29.75-56.18,58.53-67.88,39-16.9,83-10.77,122.8-.15,65.63,17.83,128.08,44.96,189.2,74.57-7.11-15.33-14.96-30.24-23.53-44.68-15.68-6.35-31.31-12.82-47.04-19.03-79.55-33.48-158.67-75.42-246.52-80.37-35.2-3.33-71.72,9.05-96.9,34.02-21.5,20.43-33.72,50.4-31.93,80.07,1.63,29.2,12.68,56.68,23.33,83.55,30.1,73.87,80.53,136.9,114.87,208.6,15.53,31.82,28.82,65.6,31.2,101.27.85,19.05-.02,39.08-8.95,56.37-12.98,25.77-38.92,43.45-66.73,49.62-26.73,6.03-54.45,5.47-81.63,3.48-52.82-1.43-105.63-8.97-158.48-4.98-27.42,2.48-56.12,9.43-77.07,28.33-19.78,18.28-27.52,45.97-28.15,72.17.93,28.3,5.73,56.14,10.38,84.01,20.07,10.61,40.95,19.89,62.53,27.73-1.52-16.11-3.06-32.23-2.93-48.42,1.05-30.2,11.07-62.2,35.4-81.7v-.02Z"/>
    <path class="cls-2" d="m829.15,722.15c-24.83-68.2-64.1-129.68-96.97-194.07-21.38-40.15-41.13-83.42-41-129.83.85-36.57,25.03-70.08,57.35-86.03,26.95-14,58.68-14.02,87.95-8.87,49.55,9.89,96.88,28.32,141.94,50.95-3.87-12.73-8.23-25.25-13.07-37.53-34.99-17.56-70.3-34.51-106.87-48.55-31.12-11.63-62.72-22.9-95.8-27.28-29.13-4.17-59.67-1.93-86.95,9.63-23.68,10.3-43.57,30.43-50.62,55.63-12.17,37.65-2.42,78.05,11.97,113.62,23.9,57.17,58.87,108.63,89.12,162.47,24.45,43.3,46.25,88.88,56.32,137.87,4.98,26.3,5.08,54.37-4.87,79.57-9.95,25.45-32.27,45.3-58.27,53.33-28.3,8.95-58.5,7.03-87.62,4.17-57.63-5.43-115.63-11.53-173.55-6.78-35.53,2.3-69.3,24.63-84,57.28-10.96,22.94-11.91,48.4-10.65,73.44,22.03,6.23,44.67,10.99,67.82,14.17,7.87-41.21,42.03-75.94,83.66-82.96,76.3-15.47,151.97,13.12,228.33,11.92,7.83-.29,15.81-.6,23.68-1.52,26.85-17,51.97-36.48,75.03-58.13,4.64-11.55,7.22-23.93,7.38-36.29-.03-36.3-8.1-72.18-20.33-106.2h.02Z"/>
    <path class="cls-2" d="m570.12,943.32c-37.89,1.92-77.23,20.65-94.18,56.11,7.97.38,16,.58,24.06.58,73.7,0,143.67-15.95,206.66-44.58-45.34-6.59-90.6-14.1-136.54-12.1h0Z"/>
    <path class="cls-2" d="m806.45,508.18c-1.52-18.5-.15-37.92,8.17-54.8,13.28-27.9,41.4-48.33,72.22-51.62,36.91-2.61,73.14,7.74,107.25,21.1-2.22-14.31-5.04-28.43-8.44-42.31-47.64-25.26-99.27-46.53-153.99-44.53-18.83,1.28-38.48,3.83-54.78,14.08-32.63,19.87-49.67,61.12-42.6,98.38,10.28,78.15,58.23,143.15,90.47,213.1,24.03,51.5,49.98,104.82,56.71,161.69,10.68-12.59,20.74-25.7,30.15-39.31-24.7-65.94-58.86-127.99-83.71-193.91-9.95-26.42-18.55-53.67-21.43-81.87h-.02Z"/>
    <path class="cls-2" d="m923.33,439.63c-23.58,3.27-46.72,15.02-60.83,34.58-12.05,17.08-17.5,38.33-17.12,59.12-.48,28.43,8.17,55.93,17.43,82.48,17.82,50.6,41.27,99.13,61.48,148.82,6.81-10.9,13.21-22.08,19.19-33.53-1.37-3.95-2.74-7.89-4.09-11.85-11.32-33.8-21.77-68.45-23.38-104.28-.5-19.17-.45-39.4,8.73-56.78,13.88-28.03,44-46.4,75.12-47.21.08-3.65.13-7.32.13-10.99,0-17.09-.86-33.98-2.53-50.63-23.74-8.04-49.06-12.73-74.13-9.74h0Z"/>
    <path class="cls-2" d="m956.47,612.73c-7.27,28.24-3.58,57.31,2.7,85.48,18.67-43.19,31.42-89.54,37.24-138.02-19.63,11.25-34.75,30.39-39.94,52.55h0Z"/>
    <path class="cls-3" d="m119.47,232.65c12.12-22.08,16.65-47.65,16.33-72.63.02-.87.02-1.75.03-2.62-32.73,34.78-60.54,74.25-82.3,117.29,7.54-.67,15.03-2.03,22.37-4.27,18.98-5.87,34.15-20.62,43.57-37.77h0Z"/>
    <path class="cls-3" d="m129.77,386.85c17.45-.8,35.32-3.13,51.17-10.97,23.08-11.77,39.67-34.35,46.22-59.18,4.5-16.85,4.27-34.47,3.53-51.75-3.55-42.93-18.63-83.62-30.28-124.77-3.25-11.07-6.37-22.18-9.36-33.33-5.83,4.59-11.56,9.31-17.18,14.15,5.67,23.84,11.19,47.72,15.94,71.76,5.97,31.38,9.52,64.53-.23,95.55-6.75,24.32-26,43.92-49.05,53.47-20.02,8.75-42.6,9.17-63.88,5.7-16.62-2.66-32.97-6.72-49.18-11.28-3.42,9.86-6.53,19.86-9.34,29.99,36.13,11.86,73.43,21.01,111.65,20.66h0Z"/>
    <path class="cls-3" d="m51.7,463.87c57.93,10.23,115.7,25.47,174.97,23.98,29.88-.03,62.85-5.92,84.15-28.68,25.18-26.27,31.65-65.67,24.45-100.38-15.1-77.53-56.02-146.35-81.03-220.6-6.78-20.7-13.1-41.75-17.9-63.08-6.35,3.95-12.61,8.04-18.76,12.26,16.44,59.41,42.1,116.61,61.22,175.09,12.28,38.25,25.9,78.87,17.62,119.42-6.53,33.1-34.67,59.58-67.12,67.12-34.4,8.33-70.02,2.63-104.4-2.85-39.99-5.97-79.01-17.1-118.99-23.08-1.9,12.28-3.35,24.71-4.33,37.27,16.77-1.51,33.6.92,50.14,3.54h-.02Z"/>
    <path class="cls-3" d="m61.52,588.12c18.68-16.2,44.77-18.95,68.53-18.95,56.95-.65,113.07,11.8,169.97,12.18,33.83,1.28,69.27,1.53,100.92-12.22,29.85-13.45,47.22-45.82,49.73-77.5,1.65-24.83-4.5-49.45-12.48-72.78-19.55-54.83-49.55-104.98-75.2-157.02-24.53-49.4-46.23-101.47-51.97-156.82-.95-18.62-1.53-37.57,2.7-55.87,1.04-5.15,2.55-10.16,4.41-15.04-13.39,5.23-26.49,11.02-39.29,17.34-.82,19.66,1.32,39.56,5.09,58.76,12.3,61.28,42.27,116.78,67.58,173.35,24.43,52.78,53.23,105.72,58.17,164.77,4.48,47-33.33,92.67-79.77,98.92-51.72,6.8-103.62-1.93-155-7.6-42.23-5.25-85.95-14.48-127.9-2.38-18.65,5.11-32.81,19.41-41.65,36.21,6,40.73,16.91,79.86,32.11,116.78-1.12-7.82-2.04-15.68-2.68-23.57-1.95-28.1,4.57-59.37,26.72-78.57h0Z"/>
    <path class="cls-3" d="m183.28,681.73c23.4-14.2,51.63-16,78.32-16.58,39.03-.55,77.88,4.3,116.87,5.83,37.85,2.78,76.87,7.32,113.98-3.3,31.92-9.33,60.87-33.92,69.6-66.77,8.72-36.85-1.13-75.03-15.65-109.05-34.67-79.77-88.62-149.53-121.78-230.05-11.23-27.68-20.68-56.72-21.67-86.8-.8-32.63,11.93-65.5,35.47-88.28,22.8-22.58,54.73-34.75,86.58-35.78,33.22-1.2,65.78,7.32,97.22,17.18,82.07,27.66,160.21,66.06,243.35,90.75-11.75-12.59-24.15-24.57-37.14-35.9-91.45-26.49-175.37-74.34-268.02-97.24-25.22-5.97-51.18-11.73-77.25-8.55-32.88,3.12-66.22,17.5-86.37,44.5-26.62,34.43-35.52,81.43-24.13,123.37,13.45,56.27,40.95,107.73,69.47,157.58,26.9,47.35,56.1,94.23,72.25,146.62,7.1,24.72,12.13,51.02,7.75,76.67-8.13,38.72-44.7,66.37-82.58,72.2-71.87,8.97-143.82-3.6-215.5-8.08-28.83-.68-59.58,3.07-83.63,20.35-11.57,9.05-22.12,20.28-27.37,34.25-5.52,14.43-6.32,30.1-5.9,45.4.7,33.26,8.15,65.64,15.53,98.01,12.83,14.74,26.51,28.73,40.96,41.88-7.37-35.32-15.87-70.46-17.57-106.6-1.02-30.78,9.92-64.63,37.23-81.6h-.02Z"/>
    <path class="cls-3" d="m284.47,786.17c20.95-18.9,49.65-25.85,77.07-28.33,52.85-3.98,105.67,3.55,158.48,4.98,27.18,1.98,54.9,2.55,81.63-3.48,27.82-6.17,53.75-23.85,66.73-49.62,8.93-17.28,9.8-37.32,8.95-56.37-2.38-35.67-15.67-69.45-31.2-101.27-34.33-71.7-84.77-134.73-114.87-208.6-10.65-26.87-21.7-54.35-23.33-83.55-1.78-29.67,10.43-59.63,31.93-80.07,25.18-24.97,61.7-37.35,96.9-34.02,87.85,4.95,166.97,46.88,246.52,80.37,15.72,6.21,31.36,12.69,47.04,19.03-6.01-10.13-12.36-20.02-19.05-29.67-24.4-9.16-48.4-19.43-72.11-30.13-54.58-25.15-111.1-46.35-169.3-61.5-40.83-10.5-85.45-19.02-126.25-3.83-38.92,14.32-68.35,51.9-71.97,93.35-3.58,35.93,6.8,71.43,20.42,104.3,30.48,72.7,80.37,134.97,114.18,205.95,14.72,31.07,28.18,63.47,31.77,97.97,4.82,36.52-12.97,76.22-46.03,93.77-26.57,14.1-57.43,16.58-86.98,17.02-52.38.37-104.27-9.52-156.67-8.62-22.78-.17-46.12.93-67.65,9.03-22,8.05-42.52,22.9-53.2,44.2-10,21.2-8.8,45.22-8.15,68.03,1.91,25.58,6.42,50.8,11.01,76.01,11.79,7.56,23.92,14.65,36.35,21.22-4.66-27.87-9.45-55.71-10.38-84.01.63-26.2,8.37-53.88,28.15-72.17h0Z"/>
    <path class="cls-3" d="m374.22,907.72c14.7-32.65,48.47-54.98,84-57.28,57.92-4.75,115.92,1.35,173.55,6.78,29.12,2.87,59.32,4.78,87.62-4.17,26-8.03,48.32-27.88,58.27-53.33,9.95-25.2,9.85-53.27,4.87-79.57-10.07-48.98-31.87-94.57-56.32-137.87-30.25-53.83-65.22-105.3-89.12-162.47-14.38-35.57-24.13-75.97-11.97-113.62,7.05-25.2,26.93-45.33,50.62-55.63,27.28-11.57,57.82-13.8,86.95-9.63,33.08,4.38,64.68,15.65,95.8,27.28,36.57,14.04,71.88,30.99,106.87,48.55-3.58-9.08-7.42-18.03-11.51-26.84-61.12-29.61-123.57-56.75-189.2-74.57-39.8-10.62-83.8-16.75-122.8.15-28.78,11.7-51.88,37.27-58.53,67.88-9.3,40.9,2.88,82.98,19.57,120.32,35,76.08,84.9,144.17,120.13,220.13,18.25,40.6,32.23,86.78,20.35,131.18-10.25,38.8-48.67,64.43-87.22,68.58-67.78,5-135.02-9.77-202.78-7.78-31.67.23-66.02,3.65-91.67,24.13-24.33,19.5-34.35,51.5-35.4,81.7-.13,16.2,1.41,32.31,2.93,48.42,11.26,4.09,22.72,7.8,34.34,11.09-1.26-25.04-.32-50.5,10.65-73.44h0Z"/>
    <path class="cls-3" d="m734.27,448.48c-7.07-37.27,9.97-78.52,42.6-98.38,16.3-10.25,35.95-12.8,54.78-14.08,54.72-2,106.35,19.27,153.99,44.53-2.17-8.85-4.58-17.6-7.21-26.25-45.07-22.62-92.4-41.05-141.94-50.95-29.27-5.15-61-5.13-87.95,8.87-32.32,15.95-56.5,49.47-57.35,86.03-.13,46.42,19.62,89.68,41,129.83,32.87,64.38,72.13,125.87,96.97,194.07,12.23,34.02,20.3,69.9,20.33,106.2-.17,12.36-2.74,24.74-7.38,36.29,13.88-13.03,27.02-26.84,39.35-41.37-6.73-56.87-32.68-110.18-56.71-161.69-32.23-69.95-80.18-134.95-90.47-213.1h-.01Z"/>
    <path class="cls-3" d="m515.05,912.37c-41.63,7.02-75.79,41.75-83.66,82.96,14.66,2.01,29.52,3.39,44.55,4.1,16.95-35.45,56.29-54.18,94.18-56.11,45.94-2,91.2,5.52,136.54,12.1,20.95-9.52,41.12-20.45,60.41-32.66-7.87.91-15.85,1.23-23.68,1.52-76.37,1.2-152.03-27.38-228.33-11.92h0Z"/>
    <path class="cls-3" d="m845.38,533.33c-.38-20.78,5.07-42.03,17.12-59.12,14.12-19.57,37.25-31.32,60.83-34.58,25.07-2.99,50.39,1.7,74.13,9.74-.9-8.91-2.03-17.75-3.38-26.51-34.1-13.36-70.34-23.71-107.25-21.1-30.82,3.28-58.93,23.72-72.22,51.62-8.32,16.88-9.68,36.3-8.17,54.8,2.88,28.2,11.48,55.45,21.43,81.87,24.85,65.91,59.01,127.97,83.71,193.91,4.38-6.33,8.62-12.77,12.71-19.32-20.21-49.69-43.66-98.22-61.48-148.82-9.27-26.55-17.92-54.05-17.43-82.48h0Z"/>
    <path class="cls-3" d="m924.75,558.2c-9.18,17.38-9.23,37.62-8.73,56.78,1.62,35.83,12.07,70.48,23.38,104.28,1.35,3.95,2.71,7.9,4.09,11.85,5.61-10.74,10.84-21.72,15.68-32.9-6.28-28.16-9.96-57.24-2.7-85.48,5.19-22.16,20.31-41.3,39.94-52.55,1.94-16.17,3.11-32.58,3.47-49.2-31.12.81-61.24,19.18-75.12,47.21h-.01Z"/>
  </g>
  <g id="Layer_2" data-name="Layer 2">
    <path class="cls-1" d="m258.99,800v-117.13l259.55-343.82h-246.07v-139.04h468.54v117.13l-260.39,343.82h252.81v139.05h-474.44Z"/>
  </g>
</svg>