<?xml version="1.0" standalone="no"?>
<!DOCTYPE svg PUBLIC "-//W3C//DTD SVG 20010904//EN"
 "http://www.w3.org/TR/2001/REC-SVG-20010904/DTD/svg10.dtd">
<svg version="1.0" xmlns="http://www.w3.org/2000/svg"
 width="700.000000pt" height="700.000000pt" viewBox="0 0 700.000000 700.000000"
 preserveAspectRatio="xMidYMid meet">
<metadata>
Created by potrace 1.14, written by Peter Selinger 2001-2017
</metadata>
<g transform="translate(0.000000,700.000000) scale(0.100000,-0.100000)"
fill="#000000" stroke="none">
<path d="M2002 6928 c-84 -283 -61 -611 68 -998 65 -194 119 -320 375 -875
309 -668 364 -811 405 -1053 36 -209 24 -316 -52 -472 -79 -162 -253 -301
-434 -347 -58 -15 -115 -18 -354 -17 -257 0 -312 3 -555 32 -148 18 -335 41
-415 53 -80 11 -228 22 -330 26 -164 4 -197 3 -290 -16 -58 -12 -130 -34 -160
-48 -78 -38 -179 -141 -224 -230 l-36 -73 0 -295 0 -296 65 -302 c76 -351 121
-603 130 -737 8 -108 23 -149 103 -278 52 -83 170 -242 180 -242 11 0 -9 331
-27 455 -11 72 -38 216 -61 320 -148 681 -169 833 -136 1015 41 226 172 374
382 432 71 20 103 22 324 22 162 0 298 -6 400 -17 85 -10 241 -26 345 -38 243
-26 665 -37 799 -20 215 27 354 86 462 196 167 169 230 421 174 695 -46 228
-133 433 -438 1039 -264 523 -334 678 -405 896 -89 274 -122 472 -114 684 8
243 42 353 161 534 l18 27 -169 0 -170 0 -21 -72z"/>
<path d="M4201 6996 c9 -8 451 -191 609 -251 339 -128 655 -220 870 -250 63
-9 178 -16 255 -16 136 -1 301 16 310 31 5 9 -148 125 -238 179 l-69 42 -246
3 c-219 3 -261 7 -370 29 -205 43 -473 126 -681 211 -62 25 -73 26 -254 26
-105 0 -188 -2 -186 -4z"/>
<path d="M1560 6939 c-14 -4 -51 -15 -83 -25 l-58 -17 6 -46 c39 -299 112
-556 320 -1131 280 -771 337 -977 337 -1210 1 -227 -44 -351 -172 -481 -195
-198 -440 -242 -930 -170 -163 25 -173 26 -475 91 -196 42 -486 100 -502 100
-1 0 -3 -61 -3 -135 l0 -135 73 0 c110 0 277 -23 563 -79 499 -97 632 -114
889 -114 207 1 290 11 405 49 204 69 340 216 412 444 20 66 23 95 23 235 0
147 -3 170 -32 286 -58 229 -138 447 -313 854 -264 613 -385 1009 -420 1370
-7 66 -12 121 -13 121 -1 1 -13 -2 -27 -7z"/>
<path d="M3286 6864 c-347 -69 -589 -302 -682 -659 -22 -84 -26 -122 -26 -235
-1 -148 9 -206 68 -405 93 -314 202 -538 578 -1185 302 -518 436 -885 437
-1188 0 -204 -45 -317 -181 -452 -97 -98 -200 -158 -323 -189 -193 -50 -598
-52 -1080 -6 -148 14 -324 30 -390 36 -346 32 -588 -27 -752 -182 -82 -78
-130 -153 -158 -247 -18 -57 -21 -95 -21 -262 0 -223 10 -293 100 -696 80
-362 95 -461 101 -682 l6 -193 37 -24 c20 -13 78 -44 128 -69 79 -40 93 -44
99 -30 10 26 -5 309 -22 418 -9 54 -34 187 -56 295 -102 497 -113 573 -114
761 0 156 13 224 61 330 80 175 250 285 494 321 172 25 627 10 1250 -41 325
-27 546 -1 725 85 202 98 340 263 382 457 24 114 13 311 -26 459 -68 263 -172
478 -517 1070 -349 601 -493 915 -555 1219 -97 479 140 893 588 1026 69 20
118 27 224 31 331 13 557 -50 1449 -407 697 -279 1018 -384 1359 -445 118 -22
341 -32 341 -16 0 14 -49 114 -97 196 l-34 60 -197 0 c-175 1 -211 4 -322 27
-288 62 -599 166 -1088 364 -496 202 -684 274 -852 328 -168 54 -376 108 -505
130 -110 19 -333 20 -429 0z"/>
<path d="M1138 6789 c-32 -16 -58 -34 -58 -40 0 -5 41 -186 91 -402 186 -806
209 -946 189 -1161 -20 -201 -72 -329 -181 -436 -160 -159 -362 -208 -679
-164 -105 14 -375 77 -443 103 -56 22 -57 21 -57 -102 l0 -114 148 -46 c343
-109 469 -131 722 -132 174 0 203 2 275 23 322 93 496 382 471 785 -14 212
-40 335 -166 757 -112 377 -179 637 -230 892 -6 32 -14 60 -18 62 -4 2 -33 -9
-64 -25z"/>
<path d="M804 6568 l-69 -54 -6 -264 c-5 -209 -11 -284 -27 -355 -38 -176
-100 -294 -199 -385 -100 -92 -208 -130 -369 -130 l-91 0 -17 -113 c-25 -156
-24 -158 49 -174 106 -23 280 -27 375 -9 122 23 200 65 290 155 164 165 231
404 216 776 -8 215 -53 576 -75 598 -4 4 -39 -16 -77 -45z"/>
<path d="M4001 6210 c-171 -24 -322 -95 -445 -210 -190 -176 -273 -409 -246
-690 32 -338 171 -659 585 -1345 388 -643 523 -941 570 -1253 28 -186 14 -303
-56 -450 -48 -100 -138 -200 -230 -255 -84 -50 -219 -92 -360 -113 -147 -21
-500 -15 -844 16 -298 27 -662 29 -805 6 -188 -30 -335 -101 -451 -216 -124
-122 -158 -209 -166 -431 -7 -183 4 -289 72 -694 30 -176 59 -368 66 -427 14
-122 5 -112 122 -127 136 -19 130 -21 122 52 -3 34 -28 201 -55 372 -59 377
-75 523 -66 635 23 320 204 512 551 586 195 41 456 41 1070 -2 307 -22 581
-22 708 0 284 48 481 203 563 442 39 114 45 312 15 471 -27 143 -85 310 -169
488 -95 201 -158 315 -400 720 -312 521 -424 747 -526 1062 -122 378 -72 651
159 878 88 87 151 128 272 180 150 65 311 80 543 51 354 -44 648 -140 1295
-421 483 -210 1050 -435 1096 -435 8 0 6 22 -12 142 l-11 68 -41 10 c-324 84
-616 189 -982 355 -586 264 -1107 443 -1505 515 -131 24 -344 33 -439 20z"/>
<path d="M4763 5560 c-342 -35 -591 -225 -675 -515 -20 -70 -23 -101 -22 -245
0 -151 3 -175 31 -280 17 -63 46 -155 64 -205 44 -120 204 -440 331 -660 57
-99 175 -304 263 -455 258 -447 388 -731 443 -965 35 -148 37 -378 4 -496 -65
-237 -240 -407 -498 -481 -74 -22 -96 -23 -364 -23 -222 1 -342 6 -545 25
-307 29 -822 35 -930 12 -222 -49 -360 -132 -457 -274 -93 -138 -132 -280
-131 -478 0 -129 28 -495 39 -512 3 -4 57 -8 121 -8 l116 0 -6 130 c-22 448
108 717 414 859 99 46 169 60 363 73 221 15 517 1 946 -42 506 -51 689 -38
885 64 87 45 221 181 268 273 61 117 79 204 79 373 0 171 -19 282 -86 484
-101 303 -214 529 -556 1106 -264 447 -380 676 -448 890 -52 164 -65 242 -65
395 0 232 47 360 183 496 58 59 94 85 160 118 437 214 999 92 2088 -453 117
-58 214 -106 217 -106 3 0 5 35 5 78 l0 79 -267 130 c-462 226 -789 363 -1138
478 -342 113 -613 157 -832 135z"/>
<path d="M5439 4885 c-286 -57 -526 -289 -585 -566 -19 -87 -14 -241 11 -359
54 -259 142 -455 482 -1080 324 -593 461 -904 534 -1207 33 -138 59 -339 59
-456 0 -238 -120 -470 -304 -586 -120 -75 -240 -101 -476 -101 -160 0 -250 8
-605 55 -367 48 -504 59 -685 51 -330 -13 -513 -83 -673 -255 -83 -90 -159
-238 -180 -348 l-6 -33 158 0 159 0 42 65 c119 183 329 294 596 315 204 17
418 1 919 -70 455 -64 657 -77 780 -51 226 48 418 252 486 516 53 207 28 509
-67 823 -82 269 -276 706 -521 1170 -302 570 -392 808 -432 1130 -40 323 169
642 470 717 101 26 351 31 481 11 230 -36 416 -100 716 -246 l202 -99 0 83 0
83 -217 105 c-232 113 -378 173 -562 232 -136 44 -329 92 -426 106 -96 13
-276 11 -356 -5z"/>
<path d="M6125 4175 c-214 -55 -395 -231 -461 -450 -26 -83 -26 -317 -1 -432
59 -275 136 -474 442 -1148 180 -395 281 -639 335 -810 33 -104 103 -387 115
-465 4 -25 9 -49 12 -53 5 -8 54 52 97 122 26 41 27 45 15 95 -44 187 -153
482 -347 936 -237 556 -340 834 -383 1040 -30 145 -30 334 -1 443 52 190 145
309 303 386 48 23 117 48 155 56 138 29 347 13 519 -40 l75 -23 0 92 0 91 -88
37 c-106 44 -251 91 -352 113 -108 23 -358 29 -435 10z"/>
<path d="M6920 3410 c-204 -26 -387 -167 -465 -357 -91 -224 -41 -617 150
-1173 95 -279 206 -593 214 -609 5 -8 21 23 44 85 l36 98 -63 215 c-122 413
-174 691 -162 872 7 114 35 232 73 302 34 65 154 187 211 216 l42 21 0 170 c0
130 -3 170 -12 169 -7 -1 -38 -5 -68 -9z"/>
</g>
</svg>
